<svg xmlns="http://www.w3.org/2000/svg" width="447.19" height="441.123" viewBox="0 0 447.19 441.123">
  <g id="sign_up" transform="translate(-32.08 -36.728)">
    <g id="freepik--background-complete--inject-15">
      <rect id="Rectangle_37" data-name="Rectangle 37" width="85.46" height="141.45" transform="translate(40.9 47.27)" fill="#e0e0e0"/>
      <rect id="Rectangle_38" data-name="Rectangle 38" width="85.46" height="141.45" transform="translate(38.06 47.27)" fill="#ebebeb"/>
      <rect id="Rectangle_39" data-name="Rectangle 39" width="78.18" height="135.72" transform="translate(41.7 50.14)" fill="#fff"/>
      <rect id="Rectangle_40" data-name="Rectangle 40" width="48.07" height="100.45" transform="translate(56.58 67.77)" fill="#ebebeb"/>
      <path id="Path_136" data-name="Path 136" d="M56.58,132.67c-.11-9.38,8.33-18.54,17.62-19.85,4.43-.62,9.14.26,13.28-1.44,7.39-3,9.74-12.85,17.18-15.76l.34,72.6H56.58Z" fill="#e0e0e0"/>
      <path id="Path_137" data-name="Path 137" d="M464.67,54.44v67.83H367.25l-3.51-67.36Z" fill="#e0e0e0"/>
      <rect id="Rectangle_41" data-name="Rectangle 41" width="67.21" height="97.42" transform="translate(363.74 122.12) rotate(-90)" fill="#fff"/>
      <path id="Path_138" data-name="Path 138" d="M461.63,122.59H363.28V54.45h98.35Zm-97.42-.93H460.7V55.38H364.21Z" fill="#e0e0e0"/>
      <rect id="Rectangle_42" data-name="Rectangle 42" width="76.32" height="50.51" transform="translate(374.29 63.26)" fill="#fff"/>
      <path id="Path_139" data-name="Path 139" d="M450.61,63.26h-5.65l-15.73.06-54.94.1.23-.22v50.51h0l-.24-.24H450.6l-.19.19c0-15.37.08-28,.1-36.75,0-4.38,0-7.81.05-10.16v-.08c0,2.34,0,5.76.05,10.12,0,8.81.06,21.45.1,36.87v.2H373.96v-.25h0V63h.22l55.09.11,15.67.06h5.56Z" fill="#e0e0e0"/>
      <path id="Path_140" data-name="Path 140" d="M363.74,54.72a8.59,8.59,0,0,1,1.68,1.09c1,.72,2.35,1.74,3.82,2.91S372,61,372.9,61.84a7.4,7.4,0,0,1,1.39,1.42,67.22,67.22,0,0,1-5.35-4.16A54.816,54.816,0,0,1,363.74,54.72Z" fill="#e0e0e0"/>
      <path id="Path_141" data-name="Path 141" d="M461.16,54.91A45.745,45.745,0,0,1,456,59.28a46.349,46.349,0,0,1-5.43,4,48.426,48.426,0,0,1,5.13-4.36,47.672,47.672,0,0,1,5.46-4.01Z" fill="#e0e0e0"/>
      <path id="Path_142" data-name="Path 142" d="M461.09,122.13l-10.87-8.8" fill="#fff"/>
      <path id="Path_143" data-name="Path 143" d="M450.22,113.33a51.136,51.136,0,0,1,5.59,4.22,52.379,52.379,0,0,1,5.28,4.58,48.731,48.731,0,0,1-5.59-4.21,53.005,53.005,0,0,1-5.28-4.59Z" fill="#e0e0e0"/>
      <path id="Path_144" data-name="Path 144" d="M363.74,122.12a47.39,47.39,0,0,1,5.08-4.31,44.456,44.456,0,0,1,5.37-3.94,47.388,47.388,0,0,1-5.08,4.31,44.445,44.445,0,0,1-5.37,3.94Z" fill="#e0e0e0"/>
      <rect id="Rectangle_43" data-name="Rectangle 43" width="16.91" height="48.02" transform="translate(389.79 95.92) rotate(-90)" fill="#e0e0e0"/>
      <path id="Path_145" data-name="Path 145" d="M384.6,341.35a35.42,35.42,0,0,0-15.13-5.21c-2.47-.25-5.18-.18-7.16,1.32a1.49,1.49,0,0,0-.74,1.31,1.61,1.61,0,0,0,.7.89c6.16,4.7,15.47,5.29,22.33,1.69" fill="#e0e0e0"/>
      <path id="Path_146" data-name="Path 146" d="M384.21,340.92a73.356,73.356,0,0,1-9.77-8.59A24.83,24.83,0,0,1,368.31,321a4.61,4.61,0,0,1,.48-3.79c7.79,6.08,13.91,14,15.42,23.71" fill="#e0e0e0"/>
      <path id="Path_147" data-name="Path 147" d="M384.52,341.29a35.231,35.231,0,0,1,.18-12.83,17.34,17.34,0,0,1,6.83-10.58c1.35,3.14.77,6.77-.18,10.06a48.461,48.461,0,0,1-6.78,14.26" fill="#e0e0e0"/>
      <path id="Path_148" data-name="Path 148" d="M392.15,355c-4.63.56-8.67,3-12.13,6.14A22.93,22.93,0,0,0,373.08,373c4.55-.28,8.4-3.49,11.2-7.08s4.74-7.54,7.81-10.9" fill="#e0e0e0"/>
      <path id="Path_149" data-name="Path 149" d="M393.81,357.16a29.91,29.91,0,0,1,3.46-28.3c2.64,9.39,1.67,20-3.46,28.3" fill="#e0e0e0"/>
      <path id="Path_150" data-name="Path 150" d="M403.9,369.18a21.61,21.61,0,0,0-20.69,11.91,1.59,1.59,0,0,0-.14,1.62,1.51,1.51,0,0,0,1.37.4c4.08-.26,7.69-2.71,10.68-5.51s5.58-6,8.87-8.43" fill="#e0e0e0"/>
      <path id="Path_151" data-name="Path 151" d="M403.58,368.52a38.52,38.52,0,0,1-.39-21.52c.76-2.77,2-5.69,4.6-7a.88.88,0,0,1,.7-.12.89.89,0,0,1,.44.51,13,13,0,0,1,1.09,6.18,39,39,0,0,1-1,6.25c-.81,3.82-1.24,7.93-3.33,11.22a22.608,22.608,0,0,0-1.34,2.47c-.39.83-.39,1.13-.76,1.79" fill="#e0e0e0"/>
      <path id="Path_152" data-name="Path 152" d="M430.28,372.5c-2-7.52.12-16.65,4.87-22.82.35-.45.81-.94,1.38-.89.87.08,1.1,1.25,1.06,2.12a41.19,41.19,0,0,1-7.31,21.59" fill="#e0e0e0"/>
      <path id="Path_153" data-name="Path 153" d="M432.69,374.15c9.15,2.38,19.63.06,27.24-5.54a22,22,0,0,0-14.75-1.81c-4.92,1.12-9.42,3.33-12.49,7.35" fill="#e0e0e0"/>
      <path id="Path_154" data-name="Path 154" d="M434.72,369.14c5.12-8.35,14.94-13.8,24.72-14.3-1.12,4-4.39,7.07-8.08,8.94s-7.81,2.68-11.87,3.47c-1.58.31-3.74.65-4.77,1.89" fill="#e0e0e0"/>
      <path id="Path_155" data-name="Path 155" d="M430.79,344.82A71.469,71.469,0,0,0,434,330.34c.38-4.93-.32-10.08-2.88-14.32-4.78,9.26-5.27,20.07-.42,29.3" fill="#e0e0e0"/>
      <path id="Path_156" data-name="Path 156" d="M446.9,336.68c5.59-10.17,17-18.29,28.55-19.43-4.45,11.1-16.6,19.67-28.55,19.43" fill="#e0e0e0"/>
      <path id="Path_157" data-name="Path 157" d="M443.38,338.67c8.34,1.27,15.45,6.6,23.25,9.83a10.44,10.44,0,0,0,5.25,1,4.12,4.12,0,0,0,2.58-7.28,11.211,11.211,0,0,0-3.82-2.31c-8.49-3.54-17.6-3.63-26.54-1.48" fill="#e0e0e0"/>
      <path id="Path_158" data-name="Path 158" d="M438.55,344.52c1.89.54,2.53,1.52,4,2.8a43.49,43.49,0,0,0,17.63,9.05c.67.17,1.56.24,1.89-.37s-.08-1.18-.46-1.65A24.3,24.3,0,0,0,451,347.12c-4.07-1.51-7.59-3.34-12.45-2.95" fill="#e0e0e0"/>
      <path id="Path_159" data-name="Path 159" d="M433.1,309.18a33.35,33.35,0,0,0,25.58,8.71,1.74,1.74,0,0,0,1.16-.42c.65-.7-.12-1.78-.87-2.37-7.52-5.86-16.63-8.29-25.87-5.92" fill="#e0e0e0"/>
      <path id="Path_160" data-name="Path 160" d="M439.56,306.82a35.69,35.69,0,0,1,31.92-5.27,25.33,25.33,0,0,1-15.21,6.68,48.341,48.341,0,0,1-16.71-1.41" fill="#e0e0e0"/>
      <path id="Path_161" data-name="Path 161" d="M437,290.58c-.73-7.51-.26-13.43-.78-21,0-.6-.17-1.33-.73-1.55-.79-.3-1.44.67-1.7,1.47a24,24,0,0,0,3.2,20.88" fill="#e0e0e0"/>
      <path id="Path_162" data-name="Path 162" d="M436.45,291.41a44.19,44.19,0,0,0,12.44-12.09c2.45-3.36,4.52-7.38,4-11.51a11.93,11.93,0,0,0-9,4.46,25,25,0,0,0-4.58,9.2c-1,3.3-1.69,6.69-2.86,9.94" fill="#e0e0e0"/>
      <path id="Path_163" data-name="Path 163" d="M448.67,288a100.43,100.43,0,0,0,30.6-18c-3.66-1.47-7.84-.59-11.5.89-8.34,3.37-15.17,9.06-19.26,17.07" fill="#e0e0e0"/>
      <path id="Path_164" data-name="Path 164" d="M439.89,295.52c5.65.61,11.39,1,17,.08s10.71-3.11,15.86-5.27a1.88,1.88,0,0,0,1.08-.82,1.24,1.24,0,0,0-.39-1.36,3.29,3.29,0,0,0-1.35-.63c-5.6-1.57-11.64-.83-17.14,1a79.059,79.059,0,0,0-15.05,7" fill="#e0e0e0"/>
      <path id="Path_165" data-name="Path 165" d="M407.64,309.44c-3.86-7.78-3.61-16.86-.28-24.87,2.34,3.57,2.63,8.11,2.2,12.36s-1.72,8.63-1.8,12.9" fill="#e0e0e0"/>
      <path id="Path_166" data-name="Path 166" d="M392.24,301.68a34.65,34.65,0,0,0-25.78,11c4.8.75,9.75-.49,14.12-2.62a71.291,71.291,0,0,0,12.09-8.1" fill="#e0e0e0"/>
      <path id="Path_167" data-name="Path 167" d="M381.89,298.21c-4.71-.38-9.24-1-13.76.43a16.46,16.46,0,0,0-10.49,8.89,24.81,24.81,0,0,0,12.9-2.44,73,73,0,0,0,11.35-6.88" fill="#e0e0e0"/>
      <path id="Path_168" data-name="Path 168" d="M397.21,298.37c-4.23-2.77-8.58-5.6-13.51-6.75s-10.64-.3-14.08,3.42c4,2.34,8.83,2.62,13.46,2.61s10.3,0,14.66,1.49" fill="#e0e0e0"/>
      <path id="Path_169" data-name="Path 169" d="M397.24,298.6c-7.24-7.11-10-19.88-7.07-29.6a45.08,45.08,0,0,1,7.07,29.6" fill="#e0e0e0"/>
      <path id="Path_170" data-name="Path 170" d="M417.15,278.45c1.36-3.17,2.32-6.5,3.55-9.73a27.86,27.86,0,0,1,5.06-9,13.32,13.32,0,0,1,9-4.64,36.1,36.1,0,0,1-17.4,23.41" fill="#e0e0e0"/>
      <path id="Path_171" data-name="Path 171" d="M413.54,282.65c-2.26-3.11-4.87-7.33-7.93-9.65s-7.05-3.73-10.79-2.84a25.14,25.14,0,0,0,18.72,12.49" fill="#e0e0e0"/>
      <path id="Path_172" data-name="Path 172" d="M414.26,278.71a53.689,53.689,0,0,1-3.57-11.56,18.07,18.07,0,0,1,1.81-11.76c4,7.51,5.26,15.57,2,23.41" fill="#e0e0e0"/>
      <path id="Path_173" data-name="Path 173" d="M417.18,255.39c2.25-7.45,9.07-12.93,16.43-15.45a6.22,6.22,0,0,1,2.88-.43,2.51,2.51,0,0,1,2.13,1.77c.27,1.27-.78,2.41-1.76,3.25a56.07,56.07,0,0,1-19.68,10.86" fill="#e0e0e0"/>
      <path id="Path_174" data-name="Path 174" d="M417.26,249.3c.29-4.8.59-9.67,2.15-14.22s4.57-8.82,8.95-10.81c.75,4.85-1.39,9.67-4,13.85s-5.69,8.11-7.24,12.76" fill="#e0e0e0"/>
      <path id="Path_175" data-name="Path 175" d="M417.15,252.6c-1.86-5.42-2.06-12.32-5.31-17-2.27-3.31-5.91-5.56-7.86-9.06a13.77,13.77,0,0,0,.45,10.28,29.8,29.8,0,0,0,6,8.61c2.4,2.56,4.46,4.5,6.7,7.21" fill="#e0e0e0"/>
      <path id="Path_176" data-name="Path 176" d="M417.18,412.42c-.14,0-.27-36.2-.28-80.85s.1-80.86.25-80.86.27,36.2.28,80.86S417.33,412.42,417.18,412.42Z" fill="#e0e0e0"/>
      <path id="Path_177" data-name="Path 177" d="M448.82,304a9.088,9.088,0,0,1-1.36.51l-3.75,1.26c-3.16,1.08-7.5,2.64-12.2,4.57s-9.06,3.62-11.57,5.79a8.46,8.46,0,0,0-2.32,3.07c-.36.85-.43,1.37-.47,1.37s0-.14,0-.38a5.828,5.828,0,0,1,.27-1.06,8.12,8.12,0,0,1,2.27-3.28,20.208,20.208,0,0,1,5-3.11c2-.94,4.24-1.92,6.6-2.89,4.72-1.93,9.09-3.44,12.29-4.43,1.59-.5,2.9-.86,3.8-1.11A7.357,7.357,0,0,1,448.82,304Z" fill="#e0e0e0"/>
      <path id="Path_178" data-name="Path 178" d="M459.19,278.51a2.542,2.542,0,0,1-.38.4L457.65,280l-4.34,3.94L438.87,296.8c-5.63,5-10.5,9.8-13.87,13.41-1.69,1.8-3,3.3-3.93,4.34-.43.48-.77.88-1.05,1.2s-.38.41-.39.39a2,2,0,0,1,.31-.46c.22-.29.54-.72,1-1.26.86-1.09,2.15-2.62,3.81-4.46a183,183,0,0,1,13.81-13.55c5.65-5,10.8-9.5,14.53-12.74l4.45-3.82,1.23-1C459,278.6,459.18,278.49,459.19,278.51Z" fill="#e0e0e0"/>
      <path id="Path_179" data-name="Path 179" d="M432.79,301.9c-.15-.07,1-2.79,2.2-6.22s1.75-6.34,1.9-6.32a21.461,21.461,0,0,1-1.4,6.48,42.166,42.166,0,0,1-1.75,4.35,7,7,0,0,1-.95,1.71Z" fill="#e0e0e0"/>
      <path id="Path_180" data-name="Path 180" d="M417.22,323.81a6.422,6.422,0,0,1-.87-1L414.12,320c-1.87-2.42-4.45-5.75-7.34-9.4s-5.56-6.92-7.49-9.29L397,298.45a7,7,0,0,1-.79-1.08,7,7,0,0,1,.94.95c.58.62,1.4,1.55,2.4,2.7,2,2.31,4.72,5.55,7.62,9.21s5.43,7,7.23,9.5c.9,1.23,1.61,2.24,2.09,2.95a8.158,8.158,0,0,1,.73,1.13Z" fill="#e0e0e0"/>
      <path id="Path_181" data-name="Path 181" d="M410.28,314.9a12.66,12.66,0,0,1-2.91-5.44,15.85,15.85,0,0,1-.66-5.48h.23c-.1.42-.17.64-.22.63s0-.24,0-.67h.23a24.891,24.891,0,0,0,.92,5.33,40.351,40.351,0,0,0,2.41,5.63Z" fill="#e0e0e0"/>
      <path id="Path_182" data-name="Path 182" d="M401.32,303.64a8.87,8.87,0,0,0-2-1.18,13.47,13.47,0,0,0-5.63-.45,34.378,34.378,0,0,0-5.67.92,18.543,18.543,0,0,1-2.34.56,7.789,7.789,0,0,1,2.24-.92,25.9,25.9,0,0,1,5.73-1.08,12.19,12.19,0,0,1,5.81.63,3.5,3.5,0,0,1,1.86,1.52Z" fill="#e0e0e0"/>
      <path id="Path_183" data-name="Path 183" d="M399.2,300.91c0,.08-1.18-.48-3.11-1.13a31.55,31.55,0,0,0-7.75-1.6,32.221,32.221,0,0,0-7.91.4c-2,.36-3.22.74-3.25.65a2.65,2.65,0,0,1,.83-.35,20.154,20.154,0,0,1,2.34-.66,27.68,27.68,0,0,1,15.87,1.21,19.831,19.831,0,0,1,2.22,1,2.9,2.9,0,0,1,.76.48Z" fill="#e0e0e0"/>
      <path id="Path_184" data-name="Path 184" d="M417.15,289.36a63.355,63.355,0,0,1-2.27-7.87,64.787,64.787,0,0,1-1.76-8,66,66,0,0,1,2.27,7.88,64.87,64.87,0,0,1,1.76,7.99Z" fill="#e0e0e0"/>
      <path id="Path_185" data-name="Path 185" d="M417.29,289.36a39.248,39.248,0,0,0-2.51-4.71,20.878,20.878,0,0,0-3.7-3.82,3.519,3.519,0,0,1,1.43.74,11.771,11.771,0,0,1,2.7,2.78,10.45,10.45,0,0,1,2.08,5.01Z" fill="#e0e0e0"/>
      <path id="Path_186" data-name="Path 186" d="M417.18,393.12c-.05,0-.16-.87-.57-2.41a34,34,0,0,0-2.42-6.26c-2.5-5.11-7.05-11.6-12.83-18.09-2.87-3.27-5.65-6.36-8-9.32a64.577,64.577,0,0,1-5.72-8.25,38.856,38.856,0,0,1-2.89-6.13c-.27-.76-.46-1.34-.57-1.75a2.459,2.459,0,0,1-.15-.63c.05,0,.31.83.91,2.31a43.31,43.31,0,0,0,3,6,67,67,0,0,0,5.78,8.14c2.37,2.93,5.15,6,8,9.28,5.8,6.51,10.34,13.07,12.78,18.27a31.62,31.62,0,0,1,2.28,6.38,16.836,16.836,0,0,1,.32,1.81A2.812,2.812,0,0,1,417.18,393.12Z" fill="#e0e0e0"/>
      <path id="Path_187" data-name="Path 187" d="M445.77,360.83a11.708,11.708,0,0,1-1.5.84,32.371,32.371,0,0,0-3.88,2.57,44.781,44.781,0,0,0-5.11,4.66c-1.79,1.89-3.63,4.09-5.52,6.44-3.76,4.73-7.28,8.91-9.39,12.24-1.07,1.66-1.85,3.06-2.36,4a12.463,12.463,0,0,1-.83,1.51,1.731,1.731,0,0,1,.14-.42c.11-.27.26-.68.5-1.18a40.391,40.391,0,0,1,2.23-4.13c2.05-3.42,5.55-7.66,9.3-12.38,1.89-2.35,3.76-4.56,5.58-6.45a42.439,42.439,0,0,1,5.23-4.61,26.92,26.92,0,0,1,4-2.46c.49-.25.9-.4,1.17-.51a1.462,1.462,0,0,1,.44-.12Z" fill="#e0e0e0"/>
      <path id="Path_188" data-name="Path 188" d="M446.33,371.31a23.5,23.5,0,0,1-3.17.46,41.794,41.794,0,0,0-7.51,1.48,22.47,22.47,0,0,0-6.72,3.53c-1.55,1.19-2.28,2.18-2.36,2.13a2.61,2.61,0,0,1,.47-.73,11.911,11.911,0,0,1,1.65-1.69,20.43,20.43,0,0,1,6.8-3.74,34.152,34.152,0,0,1,7.64-1.35A17.433,17.433,0,0,1,446.33,371.31Z" fill="#e0e0e0"/>
      <path id="Path_189" data-name="Path 189" d="M427.5,377.76c-.17-.1,1.26-2.28,2.37-5.21s1.28-5.55,1.47-5.52a5.338,5.338,0,0,1-.06,1.7,18,18,0,0,1-.92,4,18.854,18.854,0,0,1-1.84,3.67,5.281,5.281,0,0,1-1.02,1.36Z" fill="#e0e0e0"/>
      <path id="Path_190" data-name="Path 190" d="M455,332.71a2.13,2.13,0,0,1-.51.27l-1.49.67c-.65.28-1.44.64-2.33,1.11s-1.94.94-3,1.59l-1.72,1c-.6.35-1.2.75-1.83,1.15-1.27.77-2.55,1.72-3.91,2.7a67.372,67.372,0,0,0-15.06,15.58c-.93,1.4-1.83,2.7-2.56,4-.37.65-.76,1.25-1.09,1.86l-.92,1.77c-.61,1.1-1.05,2.16-1.49,3.07a25.138,25.138,0,0,0-1,2.37c-.24.66-.46,1.12-.62,1.51a1.932,1.932,0,0,1-.26.52,2.847,2.847,0,0,1,.16-.55c.14-.41.31-.92.53-1.55s.53-1.49.95-2.41.82-2,1.42-3.13l.9-1.79c.31-.62.7-1.23,1.06-1.89.72-1.31,1.62-2.64,2.54-4.05a64.33,64.33,0,0,1,15.18-15.7,47.334,47.334,0,0,1,4-2.68c.64-.39,1.24-.79,1.85-1.13l1.76-1c1.1-.63,2.16-1.09,3.07-1.53a22.79,22.79,0,0,1,2.38-1l1.53-.59a2.1,2.1,0,0,1,.46-.17Z" fill="#e0e0e0"/>
      <path id="Path_191" data-name="Path 191" d="M432.4,347.87a3.68,3.68,0,0,1,1.25-1.85,7.85,7.85,0,0,1,5-1.93,14,14,0,0,1,5.28,1,7.441,7.441,0,0,1,2,1,12.341,12.341,0,0,1-2.12-.62,15.87,15.87,0,0,0-5.13-.85,8.121,8.121,0,0,0-4.79,1.68,15.007,15.007,0,0,0-1.49,1.57Z" fill="#e0e0e0"/>
      <path id="Path_192" data-name="Path 192" d="M429,351.36a19,19,0,0,0,1.43-4.63,19.212,19.212,0,0,0-.32-4.84,3.19,3.19,0,0,1,.58,1.35,9.58,9.58,0,0,1-.81,6.94C429.46,351,429.07,351.39,429,351.36Z" fill="#e0e0e0"/>
      <path id="Path_193" data-name="Path 193" d="M392.18,398.31c.78,13.84,4.95,27.91,11.36,42.13h27.89c6.11-14.08,10-28.13,10.68-42.13Z" fill="#e0e0e0"/>
      <path id="Path_194" data-name="Path 194" d="M437.59,420.7c0,.14-9.18.26-20.5.26s-20.51-.12-20.51-.26,9.18-.26,20.51-.26S437.59,420.55,437.59,420.7Z" fill="#fafafa"/>
      <path id="Path_195" data-name="Path 195" d="M437,425.71c0,.14-8.61.26-19.22.26s-19.23-.12-19.23-.26,8.61-.26,19.23-.26S437,425.57,437,425.71Z" fill="#fafafa"/>
      <path id="Path_196" data-name="Path 196" d="M404,407.39a79.52,79.52,0,0,1,0,12.85,79.516,79.516,0,0,1,0-12.85Z" fill="#fafafa"/>
      <path id="Path_197" data-name="Path 197" d="M418.93,407.39a85.3,85.3,0,0,1,0,13.31,85.306,85.306,0,0,1,0-13.31Z" fill="#fafafa"/>
      <path id="Path_198" data-name="Path 198" d="M433,407.28a88.662,88.662,0,0,1,0,13.57,88.658,88.658,0,0,1,0-13.57Z" fill="#fafafa"/>
      <path id="Path_199" data-name="Path 199" d="M441.23,407.39c0,.15-10.77.27-24.05.27s-24.05-.12-24.05-.27,10.76-.26,24.05-.26S441.23,407.25,441.23,407.39Z" fill="#fafafa"/>
    </g>
    <g id="freepik--Floor--inject-15">
      <path id="Path_200" data-name="Path 200" d="M465.73,446c0,.14-96.84.26-216.28.26s-216.3-.12-216.3-.26,96.82-.26,216.3-.26S465.73,445.85,465.73,446Z" fill="#263238"/>
    </g>
    <g id="freepik--Screen--inject-15">
      <path id="Path_201" data-name="Path 201" d="M318.14,37h-28.7a7.14,7.14,0,0,0-7,7.31v5.23a7.14,7.14,0,0,1-7,7.31h-56a7.15,7.15,0,0,1-7-7.31V44.27a7.15,7.15,0,0,0-7-7.32H170.38a22.62,22.62,0,0,0-22.6,22.67l-.07,363.62a22.64,22.64,0,0,0,22.58,22.68l147.76.09a22.62,22.62,0,0,0,22.6-22.67l.07-363.63A22.63,22.63,0,0,0,318.14,37Z" transform="translate(-0.254 1.67)" fill="#fff"/>
      <path id="Path_202" data-name="Path 202" d="M318.14,37h.78a16.94,16.94,0,0,1,2.29.18,21.33,21.33,0,0,1,8.49,3,22,22,0,0,1,5.15,4.2,22.6,22.6,0,0,1,4.28,6.78,23.45,23.45,0,0,1,1.68,9.19q0,5.01,0,10.67c0,30.17,0,73.83.06,127.77s0,118.18,0,189.5v33.94c0,1.14-.07,2.31-.12,3.47a25,25,0,0,1-.65,3.43,23,23,0,0,1-7.37,11.72,24.559,24.559,0,0,1-6,3.68,23.059,23.059,0,0,1-6.91,1.62l-1.79.09H172a23.66,23.66,0,0,1-14.7-4.1,23.1,23.1,0,0,1-8.9-12.4,25.121,25.121,0,0,1-.93-7.65V60.3c0-.91.07-1.83.1-2.74a20.44,20.44,0,0,1,.4-2.7,23.51,23.51,0,0,1,4.6-9.66A22.9,22.9,0,0,1,171,36.75h33.89a7.25,7.25,0,0,1,7.34,4.65,8.119,8.119,0,0,1,.5,2.22c.06.77,0,1.49,0,2.23v4.38a7.3,7.3,0,0,0,1.57,3.86,6.81,6.81,0,0,0,3.41,2.28,15.71,15.71,0,0,0,4.12.26h54.29a6.49,6.49,0,0,0,2.79-1,7.18,7.18,0,0,0,3.22-4.55,11.552,11.552,0,0,0,.2-2.75V45.74a16.568,16.568,0,0,1,.11-2.64,7.28,7.28,0,0,1,.82-2.43,7.17,7.17,0,0,1,3.56-3.24,10.86,10.86,0,0,1,4.48-.5L306,37H291.31a10.81,10.81,0,0,0-4.42.51,7,7,0,0,0-3.47,3.17,7.36,7.36,0,0,0-.79,2.37,17.265,17.265,0,0,0-.1,2.61v2.71a12,12,0,0,1-.19,2.79,7.42,7.42,0,0,1-3.3,4.69,6.77,6.77,0,0,1-2.89,1c-1,.07-2.06,0-3.11,0H219.79a7.57,7.57,0,0,1-2.12-.27,7.17,7.17,0,0,1-3.57-2.38,7.75,7.75,0,0,1-1.65-4c-.08-1.48,0-2.92,0-4.41v-2.2a7.42,7.42,0,0,0-.49-2.13,6.9,6.9,0,0,0-7-4.43H171a22.55,22.55,0,0,0-18,8.33,23.23,23.23,0,0,0-4.52,9.5c-.14.88-.3,1.76-.38,2.65a22.1,22.1,0,0,0-.1,2.71V422a24.57,24.57,0,0,0,.91,7.5,22.54,22.54,0,0,0,8.7,12.12,23.09,23.09,0,0,0,14.4,4H318l1.75-.09a22.38,22.38,0,0,0,6.76-1.59,23.481,23.481,0,0,0,5.91-3.59A22.35,22.35,0,0,0,339.65,429a23.852,23.852,0,0,0,.64-3.35c0-1.14.14-2.27.12-3.42V388.29c0-71.32.06-135.55.09-189.5s.08-97.6.11-127.77V60.35A23.41,23.41,0,0,0,339,51.21a22.691,22.691,0,0,0-4.24-6.74,21.631,21.631,0,0,0-5.11-4.2,21.39,21.39,0,0,0-8.43-3,18.14,18.14,0,0,0-2.29-.21Z" fill="#263238"/>
      <rect id="Rectangle_44" data-name="Rectangle 44" width="147.7" height="32.2" rx="5.77" transform="translate(166 300.58)" fill="#b74c3a"/>
      <path id="Path_215" data-name="Path 215" d="M171.6,241.48c0,1.26-.91,2-2.42,2h-1.59v1.87H167v-5.92h2.21C170.69,239.45,171.6,240.22,171.6,241.48Zm-.62,0c0-.94-.63-1.48-1.81-1.48h-1.58v3h1.58c1.18,0,1.83-.59,1.83-1.52Z"/>
      <path id="Path_216" data-name="Path 216" d="M176.14,242.62v2.75h-.57v-.69a1.66,1.66,0,0,1-1.53.73c-1,0-1.63-.52-1.63-1.29s.44-1.26,1.72-1.26h1.41v-.27c0-.76-.43-1.17-1.26-1.17a2.29,2.29,0,0,0-1.48.52l-.27-.45a2.84,2.84,0,0,1,1.81-.6,1.58,1.58,0,0,1,1.8,1.73Zm-.6,1.42v-.73h-1.39c-.87,0-1.15.34-1.15.79s.42.84,1.13.84a1.42,1.42,0,0,0,1.41-.94Z"/>
      <path id="Path_217" data-name="Path 217" d="M177.16,244.86l.27-.47a2.65,2.65,0,0,0,1.58.5c.84,0,1.19-.29,1.19-.73,0-1.16-2.88-.24-2.88-2,0-.73.62-1.27,1.75-1.27a3,3,0,0,1,1.58.42l-.27.48a2.26,2.26,0,0,0-1.31-.38c-.8,0-1.15.31-1.15.73,0,1.2,2.88.3,2.88,2,0,.77-.68,1.26-1.84,1.26a2.9,2.9,0,0,1-1.8-.54Z"/>
      <path id="Path_218" data-name="Path 218" d="M181.29,244.86l.27-.47a2.65,2.65,0,0,0,1.58.5c.85,0,1.19-.29,1.19-.73,0-1.16-2.88-.24-2.88-2,0-.73.63-1.27,1.76-1.27a3,3,0,0,1,1.57.42l-.26.48a2.3,2.3,0,0,0-1.31-.38c-.81,0-1.16.31-1.16.73,0,1.2,2.88.3,2.88,2,0,.77-.67,1.26-1.83,1.26a2.91,2.91,0,0,1-1.81-.54Z"/>
      <path id="Path_219" data-name="Path 219" d="M192.48,240.93l-1.68,4.44h-.57l-1.4-3.64-1.4,3.64h-.57l-1.67-4.44h.57l1.4,3.77,1.43-3.77h.51l1.42,3.77,1.41-3.77Z"/>
      <path id="Path_220" data-name="Path 220" d="M192.81,243.15a2.27,2.27,0,1,1,2.27,2.26,2.19,2.19,0,0,1-2.27-2.26Zm3.92,0a1.66,1.66,0,1,0-1.65,1.73,1.62,1.62,0,0,0,1.65-1.73Z"/>
      <path id="Path_221" data-name="Path 221" d="M200.8,240.89v.58h-.14a1.44,1.44,0,0,0-1.5,1.64v2.26h-.6v-4.44h.58v.87a1.65,1.65,0,0,1,1.66-.91Z"/>
      <path id="Path_222" data-name="Path 222" d="M205.9,239.1v6.27h-.58v-.88a1.92,1.92,0,0,1-1.71.92,2.26,2.26,0,1,1,0-4.52,2,2,0,0,1,1.69.88V239.1Zm-.59,4.05a1.66,1.66,0,1,0-1.65,1.73,1.62,1.62,0,0,0,1.65-1.73Z"/>
      <path id="Path_223" data-name="Path 223" d="M220.56,319.21l.59-1.31a4.39,4.39,0,0,0,2.47.78c1,0,1.44-.34,1.44-.8,0-1.4-4.35-.44-4.35-3.22,0-1.27,1-2.33,3.15-2.33a5,5,0,0,1,2.6.66l-.53,1.32a4.2,4.2,0,0,0-2.08-.59c-1,0-1.42.38-1.42.85,0,1.38,4.35.43,4.35,3.18,0,1.25-1,2.32-3.17,2.32a5.35,5.35,0,0,1-3.05-.86Z" fill="#fff"/>
      <path id="Path_224" data-name="Path 224" d="M227.65,312.46a1,1,0,0,1,1-.93.93.93,0,0,1,1,.89,1.035,1.035,0,0,1-2.07,0Zm.2,1.73h1.67v5.75h-1.67Z" fill="#fff"/>
      <path id="Path_225" data-name="Path 225" d="M237,316.65v3.29h-1.66v-3c0-.94-.43-1.36-1.17-1.36a1.369,1.369,0,0,0-1.38,1.55v2.84h-1.67v-5.75h1.6v.67a2.51,2.51,0,0,1,1.9-.76,2.25,2.25,0,0,1,2.38,2.52Z" fill="#fff"/>
      <path id="Path_226" data-name="Path 226" d="M244.46,314.19V319c0,2.14-1.15,3.12-3.23,3.12a4.68,4.68,0,0,1-2.82-.79l.66-1.2a3.42,3.42,0,0,0,2,.66c1.18,0,1.69-.54,1.69-1.58V319a2.36,2.36,0,0,1-1.81.72,2.79,2.79,0,1,1,0-5.57,2.3,2.3,0,0,1,1.9.83v-.74Zm-1.64,2.69a1.52,1.52,0,1,0-1.51,1.42,1.4,1.4,0,0,0,1.51-1.42Z" fill="#fff"/>
      <path id="Path_227" data-name="Path 227" d="M248.84,312.46a1,1,0,0,1,1-.93.93.93,0,0,1,1,.89,1.035,1.035,0,0,1-2.07,0Zm.2,1.73h1.67v5.75H249Z" fill="#fff"/>
      <path id="Path_228" data-name="Path 228" d="M258.14,316.65v3.29h-1.66v-3c0-.94-.43-1.36-1.17-1.36a1.369,1.369,0,0,0-1.38,1.55v2.84h-1.67v-5.75h1.59v.67a2.54,2.54,0,0,1,1.91-.76,2.25,2.25,0,0,1,2.38,2.52Z" fill="#fff"/>
      <rect id="Rectangle_45" data-name="Rectangle 45" width="147.7" height="31.95" rx="7.01" transform="translate(166 193.52)" fill="#ebebeb"/>
      <path id="Path_229" data-name="Path 229" d="M306.7,225.47h.22a3.117,3.117,0,0,0,.67-.06,6.76,6.76,0,0,0,2.46-.83,7,7,0,0,0,2.86-3,6.83,6.83,0,0,0,.68-2.59c0-1,0-2,0-3.1,0-4.39,0-9.78-.08-16a6.94,6.94,0,0,0-2-4.19,6.83,6.83,0,0,0-4.51-2H295.8l-122.8.08a6.78,6.78,0,0,0-6.46,4.77,15.829,15.829,0,0,0-.3,4.32v15.24a7.09,7.09,0,0,0,.23,2.06,6.72,6.72,0,0,0,2.14,3.42,6.8,6.8,0,0,0,3.67,1.59c1.35.07,2.78,0,4.16,0h24.19l55.19.05,37.21.09h0l-37.21.08-55.19.06H172.25A7.24,7.24,0,0,1,166,220.3a7.789,7.789,0,0,1-.24-2.19V200.66a8.28,8.28,0,0,1,.32-2.26,7.31,7.31,0,0,1,7-5.14l122.77.07h11.21a7.14,7.14,0,0,1,6.81,6.43c.06,6.27,0,11.62,0,16v3.11a7.049,7.049,0,0,1-.72,2.65,6.94,6.94,0,0,1-2.95,3.06,6.58,6.58,0,0,1-2.51.79,6,6,0,0,1-.99.1Z" fill="#263238"/>
      <rect id="Rectangle_46" data-name="Rectangle 46" width="147.7" height="31.95" rx="7.01" transform="translate(166 251.18)" fill="#ebebeb"/>
      <path id="Path_230" data-name="Path 230" d="M306.7,283.13h.22a5.854,5.854,0,0,0,.67-.07,6.9,6.9,0,0,0,2.46-.82,7.07,7.07,0,0,0,2.86-3,6.83,6.83,0,0,0,.68-2.59c0-1,0-2,0-3.11,0-4.38,0-9.78-.08-16a6.88,6.88,0,0,0-2-4.18,6.79,6.79,0,0,0-4.51-1.95H295.8l-122.8.03a6.79,6.79,0,0,0-6.46,4.78,15.73,15.73,0,0,0-.3,4.31v15.24a7,7,0,0,0,.23,2.06,6.72,6.72,0,0,0,2.14,3.42,6.8,6.8,0,0,0,3.67,1.59c1.35.08,2.78,0,4.16,0h24.19l55.19.06,37.21.08,10.12.05h0l-10.12.05-37.21.09-55.19.05H176.46c-1.4,0-2.76.05-4.21,0A7.24,7.24,0,0,1,166,278a7.749,7.749,0,0,1-.24-2.19V258.33a8.35,8.35,0,0,1,.32-2.27,7.31,7.31,0,0,1,7-5.14l122.77.07L307,251a7.1,7.1,0,0,1,4.72,2.06,7.19,7.19,0,0,1,2.09,4.37c.06,6.27,0,11.62,0,16v3.12a7.09,7.09,0,0,1-3.67,5.71,6.709,6.709,0,0,1-2.51.78A6,6,0,0,1,306.7,283.13Z" fill="#263238"/>
      <path id="Path_231" data-name="Path 231" d="M307.93,400.81a6.04,6.04,0,0,0,.9-.1,5.79,5.79,0,0,0,2.4-1,5.68,5.68,0,0,0,2.27-3.49,14,14,0,0,0,.11-2.72c0-1,0-2,0-3.14,0-4.43,0-9.84-.05-16.12a5.63,5.63,0,0,0-2-4.15,5.469,5.469,0,0,0-2.2-1.12,9.45,9.45,0,0,0-2.57-.18h-11.3l-123.69.07a5.55,5.55,0,0,0-3.88,1.6,5.45,5.45,0,0,0-1.63,3.85v19.81a9.55,9.55,0,0,0,.13,2.09,5.49,5.49,0,0,0,2.22,3.33,5.58,5.58,0,0,0,1.84.84,8.119,8.119,0,0,0,2.05.17h28.59l55.61.06,37.49.08,10.19.05h0l-10.19.05L256.7,401l-55.61.06H172.5a8.061,8.061,0,0,1-2.17-.18,5.8,5.8,0,0,1-2-.91,6,6,0,0,1-2.43-3.64,9.72,9.72,0,0,1-.14-2.2V374.31a6,6,0,0,1,6-6l123.69.08h11.3a9.46,9.46,0,0,1,2.65.2,5.83,5.83,0,0,1,2.32,1.19,6,6,0,0,1,2.1,4.38v19.27a14.422,14.422,0,0,1-.13,2.75,5.85,5.85,0,0,1-2.37,3.55,5.77,5.77,0,0,1-2.45,1,4.462,4.462,0,0,1-.94.08Z" fill="#e0e0e0"/>
      <path id="Path_232" data-name="Path 232" d="M272.71,384.71c0,.14-14.95.26-33.39.26s-33.38-.12-33.38-.26,14.94-.26,33.38-.26S272.71,384.57,272.71,384.71Z" fill="#e0e0e0"/>
      <circle id="Ellipse_3" data-name="Ellipse 3" cx="12.52" cy="12.52" r="12.52" transform="translate(227.7 101.152) rotate(-45)" fill="#f5f5f5"/>
      <path id="Path_233" data-name="Path 233" d="M253.5,110.65a8,8,0,0,0-8.09-7.11,8.22,8.22,0,0,0-8.09,7.14,11.09,11.09,0,0,0,8.09,3A11.47,11.47,0,0,0,253.5,110.65Z" fill="#e0e0e0"/>
      <circle id="Ellipse_4" data-name="Ellipse 4" cx="4.91" cy="4.91" r="4.91" transform="translate(240.5 94.58)" fill="#e0e0e0"/>
      <path id="Path_234" data-name="Path 234" d="M253.44,110.22a9.889,9.889,0,0,0-.76-2.31,7.78,7.78,0,0,0-1.77-2.18,9.72,9.72,0,0,0-3.2-1.79l-.25-.09.23-.12a4.88,4.88,0,0,0,1.95-2,4.79,4.79,0,0,0-1-5.83,4.74,4.74,0,0,0-6.36,0,4.65,4.65,0,0,0-1.54,2.84,4.73,4.73,0,0,0,.5,3,4.62,4.62,0,0,0,.86,1.14,5.651,5.651,0,0,0,1.08.83l.22.14-.25.07a7.5,7.5,0,0,0-3.2,1.77,7.93,7.93,0,0,0-1.67,2.26,8.679,8.679,0,0,0-.66,1.69,4.593,4.593,0,0,0-.12.46.7.7,0,0,1-.05.16s0-.06,0-.17a1.075,1.075,0,0,1,.09-.47,8.91,8.91,0,0,1,.61-1.73,8.2,8.2,0,0,1,1.67-2.34,7.55,7.55,0,0,1,3.26-1.85v.2a6.24,6.24,0,0,1-1.13-.84,5.42,5.42,0,0,1-.91-1.2,5.07,5.07,0,0,1-.55-3.14,5,5,0,0,1,1.62-3,5.1,5.1,0,0,1,3.37-1.29,5,5,0,0,1,4.41,7.46,5.11,5.11,0,0,1-2.07,2v-.21a9.91,9.91,0,0,1,3.26,1.87,7.73,7.73,0,0,1,1.76,2.26,6,6,0,0,1,.39,1,3.47,3.47,0,0,1,.18.75l.07.48C253.45,110.17,253.45,110.22,253.44,110.22Z" fill="#263238"/>
      <path id="Path_235" data-name="Path 235" d="M257.93,101.15a.549.549,0,0,1,0-.2V99.92a3.8,3.8,0,0,0-.08-.53,8.8,8.8,0,0,0-.27-1.29,12.08,12.08,0,0,0-1.39-3.31,12.41,12.41,0,0,0-3.17-3.52A12.27,12.27,0,0,0,247.69,89a12.47,12.47,0,0,0-6.52.54,13.59,13.59,0,0,0-1.62.72,12.871,12.871,0,0,0-1.51,1,13.349,13.349,0,0,0-1.41,1.2,13.191,13.191,0,0,0-3,4.85,12.378,12.378,0,0,0,1.77,11.24,13.942,13.942,0,0,0,1.22,1.43,14.329,14.329,0,0,0,1.4,1.2,15.662,15.662,0,0,0,1.52,1,13.508,13.508,0,0,0,1.62.71,12.409,12.409,0,0,0,14.92-5.29,12.08,12.08,0,0,0,1.39-3.31,8.8,8.8,0,0,0,.27-1.29,3.8,3.8,0,0,1,.08-.52,3.224,3.224,0,0,0,0-.44v-.6a.549.549,0,0,1,0-.2v1.24a1.463,1.463,0,0,1-.07.53,8.261,8.261,0,0,1-.24,1.3,11.64,11.64,0,0,1-1.37,3.37,12.24,12.24,0,0,1-3.18,3.6,12.53,12.53,0,0,1-5.31,2.39,12.76,12.76,0,0,1-6.65-.54,13.3,13.3,0,0,1-1.65-.72,13.622,13.622,0,0,1-1.56-1,16.461,16.461,0,0,1-1.43-1.22,14.689,14.689,0,0,1-1.25-1.47,12.632,12.632,0,0,1,0-14.98,14.568,14.568,0,0,1,1.25-1.46A12.734,12.734,0,0,1,237.88,91a11.67,11.67,0,0,1,1.55-1,13.3,13.3,0,0,1,1.65-.72,12.6,12.6,0,0,1,15.18,5.45,11.641,11.641,0,0,1,1.37,3.37,8.261,8.261,0,0,1,.24,1.3c0,.19.06.37.07.53s0,.31,0,.44v.8Z" fill="#263238"/>
      <path id="Path_236" data-name="Path 236" d="M322.76,153.22c0,.15-35.17.26-78.54.26s-78.55-.11-78.55-.26,35.16-.26,78.55-.26S322.76,153.08,322.76,153.22Z" fill="#e0e0e0"/>
      <path id="Path_237" data-name="Path 237" d="M322.76,350.85c0,.14-35.17.26-78.54.26s-78.55-.12-78.55-.26,35.16-.26,78.55-.26S322.76,350.71,322.76,350.85Z" fill="#e0e0e0"/>
      <path id="Path_238" data-name="Path 238" d="M180.85,266.64l2.23,1.26-.58,1-2.28-1.34v2.56h-1.13v-2.56l-2.27,1.34-.59-1,2.26-1.26-2.26-1.24.59-1,2.27,1.33v-2.54h1.13v2.54l2.28-1.33.58,1Z" fill="#fff"/>
      <path id="Path_239" data-name="Path 239" d="M188.75,266.64,191,267.9l-.59,1-2.27-1.34v2.56H187v-2.56l-2.28,1.34-.58-1,2.25-1.26-2.25-1.24.58-1,2.28,1.33v-2.54h1.13v2.54l2.27-1.33.59,1Z" fill="#fff"/>
      <path id="Path_240" data-name="Path 240" d="M196.65,266.64l2.24,1.26-.58,1L196,267.6v2.56h-1.13V267.6l-2.28,1.34-.58-1,2.26-1.26-2.26-1.24.58-1,2.28,1.33v-2.54H196v2.54l2.28-1.33.58,1Z" fill="#fff"/>
      <path id="Path_241" data-name="Path 241" d="M204.55,266.64l2.24,1.26-.58,1-2.28-1.34v2.56H202.8v-2.56l-2.27,1.34-.59-1,2.26-1.26L200,265.4l.59-1,2.27,1.33v-2.54H204v2.54l2.28-1.33.58,1Z" fill="#fff"/>
      <path id="Path_255" data-name="Path 255" d="M171.89,77.79a.45.45,0,0,1-.32-.13l-4.7-4.12a.49.49,0,0,1,0-.75l4.7-3.9a.48.48,0,0,1,.69.06.49.49,0,0,1-.06.7L168,73.18l4.26,3.74a.49.49,0,0,1,.05.7.52.52,0,0,1-.42.17Z" fill="#263238"/>
      <path id="Path_256" data-name="Path 256" d="M308.28,73.28a2.51,2.51,0,1,1-2.51-2.51A2.51,2.51,0,0,1,308.28,73.28Z" fill="#263238"/>
      <path id="Path_257" data-name="Path 257" d="M315.52,73.28a2.51,2.51,0,1,1-.739-1.778A2.51,2.51,0,0,1,315.52,73.28Z" fill="#263238"/>
      <path id="Path_258" data-name="Path 258" d="M322.76,73.28a2.51,2.51,0,1,1-2.5-2.51A2.51,2.51,0,0,1,322.76,73.28Z" fill="#263238"/>
      <path id="Path_351" data-name="Path 351" d="M1.738,8.354V11H.918V4H2.842a2.539,2.539,0,0,1,1.741.547A1.953,1.953,0,0,1,5.2,6.088a2.122,2.122,0,0,1-.686,1.631,2.621,2.621,0,0,1-1.853.635Zm0-3.613V7.611H2.6a1.921,1.921,0,0,0,1.3-.388,1.374,1.374,0,0,0,.447-1.1Q4.341,4.74,2.7,4.74ZM10.562,11h-.8V8.119q0-1.563-1.162-1.562a1.267,1.267,0,0,0-.986.452,1.683,1.683,0,0,0-.4,1.16V11h-.8V3.6h.8V6.83h.02a1.819,1.819,0,0,1,1.641-.947q1.689,0,1.689,2.036Zm3.6.117a2.319,2.319,0,0,1-1.77-.7,2.6,2.6,0,0,1-.662-1.858,2.7,2.7,0,0,1,.688-1.968,2.475,2.475,0,0,1,1.86-.708,2.243,2.243,0,0,1,1.746.688A2.73,2.73,0,0,1,16.65,8.48a2.686,2.686,0,0,1-.676,1.917A2.37,2.37,0,0,1,14.16,11.117Zm.059-4.561A1.523,1.523,0,0,0,13,7.082a2.156,2.156,0,0,0-.449,1.448A2.039,2.039,0,0,0,13,9.931a1.543,1.543,0,0,0,1.216.513,1.464,1.464,0,0,0,1.194-.5A2.182,2.182,0,0,0,15.83,8.51a2.22,2.22,0,0,0-.417-1.445A1.457,1.457,0,0,0,14.219,6.557ZM22.08,11h-.8V8.148q0-1.592-1.162-1.592a1.261,1.261,0,0,0-.994.452,1.674,1.674,0,0,0-.393,1.14V11h-.8V6h.8v.83h.02a1.8,1.8,0,0,1,1.641-.947,1.53,1.53,0,0,1,1.255.53,2.36,2.36,0,0,1,.435,1.531Zm5.527-2.3h-3.53a1.87,1.87,0,0,0,.449,1.289,1.549,1.549,0,0,0,1.182.454,2.457,2.457,0,0,0,1.553-.557v.752a2.9,2.9,0,0,1-1.743.479,2.113,2.113,0,0,1-1.665-.681,2.788,2.788,0,0,1-.605-1.917,2.734,2.734,0,0,1,.662-1.9,2.121,2.121,0,0,1,1.643-.735,1.88,1.88,0,0,1,1.519.635,2.647,2.647,0,0,1,.537,1.763Zm-.82-.679a1.629,1.629,0,0,0-.334-1.079,1.14,1.14,0,0,0-.916-.386,1.294,1.294,0,0,0-.962.405,1.839,1.839,0,0,0-.488,1.06Z" transform="translate(170.08 174.728)"/>
      <path id="Path_352" data-name="Path 352" d="M4.98,7.47a6.878,6.878,0,0,1-.159,1.558,3.629,3.629,0,0,1-.459,1.145,2.066,2.066,0,0,1-.737.708,2.018,2.018,0,0,1-.994.242,1.885,1.885,0,0,1-.94-.232,1.97,1.97,0,0,1-.7-.676,3.428,3.428,0,0,1-.43-1.091A6.748,6.748,0,0,1,.42,7.641,7.638,7.638,0,0,1,.574,6.02,3.708,3.708,0,0,1,1.025,4.84a2.01,2.01,0,0,1,.74-.718,2.077,2.077,0,0,1,1.013-.242Q4.98,3.881,4.98,7.47Zm-.82.078q0-2.988-1.421-2.988-1.5,0-1.5,3.042,0,2.837,1.47,2.837Q4.16,10.438,4.16,7.548ZM8.926,11h-.8V4.95a1.854,1.854,0,0,1-.271.212,4.417,4.417,0,0,1-.4.237q-.222.117-.469.22A3.407,3.407,0,0,1,6.5,5.78V4.97a4.655,4.655,0,0,0,.559-.2q.3-.125.581-.278t.54-.322a4.284,4.284,0,0,0,.439-.33h.3Zm6.836-3.53A6.878,6.878,0,0,1,15.6,9.027a3.629,3.629,0,0,1-.459,1.145,2.066,2.066,0,0,1-.737.708,2.018,2.018,0,0,1-.994.242,1.885,1.885,0,0,1-.94-.232,1.97,1.97,0,0,1-.7-.676,3.428,3.428,0,0,1-.43-1.091A6.748,6.748,0,0,1,11.2,7.641a7.638,7.638,0,0,1,.154-1.621,3.708,3.708,0,0,1,.452-1.179,2.01,2.01,0,0,1,.74-.718,2.077,2.077,0,0,1,1.013-.242Q15.762,3.881,15.762,7.47Zm-.82.078q0-2.988-1.421-2.988-1.5,0-1.5,3.042,0,2.837,1.47,2.837Q14.941,10.438,14.941,7.548Zm6.211-.078a6.878,6.878,0,0,1-.159,1.558,3.629,3.629,0,0,1-.459,1.145,2.066,2.066,0,0,1-.737.708,2.018,2.018,0,0,1-.994.242,1.885,1.885,0,0,1-.94-.232,1.97,1.97,0,0,1-.7-.676,3.428,3.428,0,0,1-.43-1.091,6.748,6.748,0,0,1-.146-1.482,7.638,7.638,0,0,1,.154-1.621A3.708,3.708,0,0,1,17.2,4.84a2.01,2.01,0,0,1,.74-.718,2.077,2.077,0,0,1,1.013-.242Q21.152,3.881,21.152,7.47Zm-.82.078q0-2.988-1.421-2.988-1.5,0-1.5,3.042,0,2.837,1.47,2.837Q20.332,10.438,20.332,7.548Zm6.211-.078a6.878,6.878,0,0,1-.159,1.558,3.629,3.629,0,0,1-.459,1.145,2.066,2.066,0,0,1-.737.708,2.018,2.018,0,0,1-.994.242,1.885,1.885,0,0,1-.94-.232,1.97,1.97,0,0,1-.7-.676,3.428,3.428,0,0,1-.43-1.091,6.748,6.748,0,0,1-.146-1.482,7.638,7.638,0,0,1,.154-1.621,3.708,3.708,0,0,1,.452-1.179,2.01,2.01,0,0,1,.74-.718,2.077,2.077,0,0,1,1.013-.242Q26.543,3.881,26.543,7.47Zm-.82.078q0-2.988-1.421-2.988-1.5,0-1.5,3.042,0,2.837,1.47,2.837Q25.723,10.438,25.723,7.548Zm6.211-.078a6.878,6.878,0,0,1-.159,1.558,3.629,3.629,0,0,1-.459,1.145,2.066,2.066,0,0,1-.737.708,2.018,2.018,0,0,1-.994.242,1.885,1.885,0,0,1-.94-.232,1.97,1.97,0,0,1-.7-.676,3.428,3.428,0,0,1-.43-1.091,6.748,6.748,0,0,1-.146-1.482,7.638,7.638,0,0,1,.154-1.621,3.708,3.708,0,0,1,.452-1.179,2.01,2.01,0,0,1,.74-.718,2.077,2.077,0,0,1,1.013-.242Q31.934,3.881,31.934,7.47Zm-.82.078q0-2.988-1.421-2.988-1.5,0-1.5,3.042,0,2.837,1.47,2.837Q31.113,10.438,31.113,7.548Zm6.211-.078a6.878,6.878,0,0,1-.159,1.558,3.629,3.629,0,0,1-.459,1.145,2.066,2.066,0,0,1-.737.708,2.018,2.018,0,0,1-.994.242,1.885,1.885,0,0,1-.94-.232,1.97,1.97,0,0,1-.7-.676,3.428,3.428,0,0,1-.43-1.091,6.748,6.748,0,0,1-.146-1.482,7.638,7.638,0,0,1,.154-1.621,3.708,3.708,0,0,1,.452-1.179,2.01,2.01,0,0,1,.74-.718,2.077,2.077,0,0,1,1.013-.242Q37.324,3.881,37.324,7.47Zm-.82.078q0-2.988-1.421-2.988-1.5,0-1.5,3.042,0,2.837,1.47,2.837Q36.5,10.438,36.5,7.548Zm6.211-.078a6.878,6.878,0,0,1-.159,1.558,3.629,3.629,0,0,1-.459,1.145,2.066,2.066,0,0,1-.737.708,2.018,2.018,0,0,1-.994.242,1.885,1.885,0,0,1-.94-.232,1.97,1.97,0,0,1-.7-.676,3.428,3.428,0,0,1-.43-1.091,6.748,6.748,0,0,1-.146-1.482,7.638,7.638,0,0,1,.154-1.621A3.708,3.708,0,0,1,38.76,4.84a2.01,2.01,0,0,1,.74-.718,2.077,2.077,0,0,1,1.013-.242Q42.715,3.881,42.715,7.47Zm-.82.078q0-2.988-1.421-2.988-1.5,0-1.5,3.042,0,2.837,1.47,2.837Q41.895,10.438,41.895,7.548Zm6.211-.078a6.878,6.878,0,0,1-.159,1.558,3.629,3.629,0,0,1-.459,1.145,2.066,2.066,0,0,1-.737.708,2.018,2.018,0,0,1-.994.242,1.885,1.885,0,0,1-.94-.232,1.97,1.97,0,0,1-.7-.676,3.428,3.428,0,0,1-.43-1.091,6.748,6.748,0,0,1-.146-1.482A7.638,7.638,0,0,1,43.7,6.02,3.708,3.708,0,0,1,44.15,4.84a2.01,2.01,0,0,1,.74-.718A2.077,2.077,0,0,1,45.9,3.881Q48.105,3.881,48.105,7.47Zm-.82.078q0-2.988-1.421-2.988-1.5,0-1.5,3.042,0,2.837,1.47,2.837Q47.285,10.438,47.285,7.548ZM53.5,7.47a6.878,6.878,0,0,1-.159,1.558,3.629,3.629,0,0,1-.459,1.145,2.066,2.066,0,0,1-.737.708,2.018,2.018,0,0,1-.994.242,1.885,1.885,0,0,1-.94-.232,1.97,1.97,0,0,1-.7-.676,3.428,3.428,0,0,1-.43-1.091,6.748,6.748,0,0,1-.146-1.482,7.638,7.638,0,0,1,.154-1.621,3.708,3.708,0,0,1,.452-1.179,2.01,2.01,0,0,1,.74-.718,2.077,2.077,0,0,1,1.013-.242Q53.5,3.881,53.5,7.47Zm-.82.078q0-2.988-1.421-2.988-1.5,0-1.5,3.042,0,2.837,1.47,2.837Q52.676,10.438,52.676,7.548Z" transform="translate(174.08 200.728)" fill="#fff"/>
      <path id="Path_350" data-name="Path 350" d="M70.808,15.575v-1.45a2.816,2.816,0,0,0,.6.4,4.836,4.836,0,0,0,.732.3A5.831,5.831,0,0,0,72.91,15a4.308,4.308,0,0,0,.718.066,2.812,2.812,0,0,0,1.7-.421A1.58,1.58,0,0,0,75.7,12.7a2.1,2.1,0,0,0-.516-.575,5.124,5.124,0,0,0-.78-.5q-.45-.238-.97-.5-.549-.278-1.025-.564a4.443,4.443,0,0,1-.828-.63,2.627,2.627,0,0,1-.553-.78,2.414,2.414,0,0,1-.2-1.022,2.4,2.4,0,0,1,.315-1.249A2.7,2.7,0,0,1,71.966,6a3.752,3.752,0,0,1,1.168-.513,5.349,5.349,0,0,1,1.337-.168,5.122,5.122,0,0,1,2.263.374V7.079a4.1,4.1,0,0,0-2.388-.645,3.927,3.927,0,0,0-.806.084,2.276,2.276,0,0,0-.718.275,1.59,1.59,0,0,0-.513.491,1.3,1.3,0,0,0-.2.732,1.508,1.508,0,0,0,.15.7,1.705,1.705,0,0,0,.443.535,4.413,4.413,0,0,0,.714.469q.421.227.97.5t1.069.586a4.888,4.888,0,0,1,.886.681,3.027,3.027,0,0,1,.6.828,2.327,2.327,0,0,1,.223,1.04,2.637,2.637,0,0,1-.3,1.315,2.5,2.5,0,0,1-.82.875,3.583,3.583,0,0,1-1.19.487,6.518,6.518,0,0,1-1.421.15,5.79,5.79,0,0,1-.615-.04q-.366-.04-.747-.117a6.1,6.1,0,0,1-.721-.19A2.245,2.245,0,0,1,70.808,15.575ZM79.722,6.6a.761.761,0,0,1-.549-.22.742.742,0,0,1-.227-.557.769.769,0,0,1,.776-.784.776.776,0,0,1,.56.223.782.782,0,0,1,0,1.11A.769.769,0,0,1,79.722,6.6Zm.586,9.4h-1.2V8.5h1.2Zm8.833-.6q0,4.131-3.955,4.131A5.31,5.31,0,0,1,82.754,19V17.8a4.994,4.994,0,0,0,2.417.7q2.769,0,2.769-2.944v-.82H87.91a3.035,3.035,0,0,1-4.83.436,4,4,0,0,1-.853-2.684,4.669,4.669,0,0,1,.919-3.04,3.071,3.071,0,0,1,2.516-1.128A2.445,2.445,0,0,1,87.91,9.54h.029V8.5h1.2Zm-1.2-2.791V11.5a2.146,2.146,0,0,0-.6-1.531,1.989,1.989,0,0,0-1.505-.637,2.086,2.086,0,0,0-1.743.809,3.612,3.612,0,0,0-.63,2.267,3.1,3.1,0,0,0,.6,2,1.952,1.952,0,0,0,1.6.751,2.091,2.091,0,0,0,1.644-.718A2.675,2.675,0,0,0,87.94,12.609ZM97.8,16H96.6V11.723q0-2.388-1.743-2.388a1.891,1.891,0,0,0-1.49.677,2.511,2.511,0,0,0-.59,1.71V16h-1.2V8.5h1.2V9.745H92.8a2.707,2.707,0,0,1,2.461-1.421,2.3,2.3,0,0,1,1.882.795,3.54,3.54,0,0,1,.652,2.3Zm14.216-4.248q0,4.424-3.992,4.424-3.823,0-3.823-4.255V5.5h1.23V11.84q0,3.23,2.725,3.23,2.629,0,2.629-3.12V5.5h1.23Zm3.691,3.164h-.029V19.45h-1.2V8.5h1.2V9.818h.029A2.84,2.84,0,0,1,118.3,8.324a2.747,2.747,0,0,1,2.263,1.007,4.171,4.171,0,0,1,.813,2.7,4.649,4.649,0,0,1-.916,3.014,3.048,3.048,0,0,1-2.5,1.132A2.509,2.509,0,0,1,115.706,14.916Zm-.029-3.025v1.047a2.23,2.23,0,0,0,.6,1.578,2.156,2.156,0,0,0,3.245-.187,3.831,3.831,0,0,0,.619-2.322,3.024,3.024,0,0,0-.579-1.963A1.915,1.915,0,0,0,118,9.335a2.128,2.128,0,0,0-1.685.729A2.676,2.676,0,0,0,115.677,11.891Z" transform="translate(148.08 128.728)"/>
    </g>
    <g id="freepik--speech-bubble--inject-15">
      <path id="Path_259" data-name="Path 259" d="M443.48,164.81H383.61a9.44,9.44,0,0,0-9.44,9.44v14.9a9.44,9.44,0,0,0,9.44,9.44h.62v8.51l9.59-8.51h49.66a9.44,9.44,0,0,0,9.44-9.44v-14.9A9.44,9.44,0,0,0,443.48,164.81Z" fill="#fff"/>
      <path id="Path_260" data-name="Path 260" d="M443.48,164.81H444a8.63,8.63,0,0,1,1.38.13c.3.06.64.15,1,.24a10.154,10.154,0,0,1,1.16.45,9.3,9.3,0,0,1,2.58,1.74,9.7,9.7,0,0,1,2.23,3.2,10.88,10.88,0,0,1,.75,4.58v14.6a9.64,9.64,0,0,1-6,8.34,10.14,10.14,0,0,1-3.8.71H393.84l.17-.07-9.58,8.52-.44.38v-9.09l.26.26a10.16,10.16,0,0,1-5.37-1.25,9.89,9.89,0,0,1-3.81-3.89,10.61,10.61,0,0,1-.93-2.56,12.76,12.76,0,0,1-.21-2.67V175.6c0-.83,0-1.66.07-2.51a9.73,9.73,0,0,1,5.58-7.68,10.17,10.17,0,0,1,4.64-.89h28.69l22.39.08h0l-22.39.09h-28.7a9.57,9.57,0,0,0-4.44.85,9.21,9.21,0,0,0-5.29,7.3,22.28,22.28,0,0,0-.06,2.46v12.83a12.218,12.218,0,0,0,.2,2.57,10.221,10.221,0,0,0,.89,2.42,9.32,9.32,0,0,0,3.61,3.68,9.66,9.66,0,0,0,5.11,1.18h.26v8.78l-.44-.19,9.59-8.51.07-.07h45.61c2.67-.08,5.33.33,7.6-.66a9.24,9.24,0,0,0,5.78-8c.06-1.08,0-2.18,0-3.23V174.75a10.77,10.77,0,0,0-.69-4.5,9.52,9.52,0,0,0-2.15-3.15,9.12,9.12,0,0,0-2.51-1.74,10.786,10.786,0,0,0-1.13-.46l-1-.26q-.874.042-1.74.17Z" fill="#263238"/>
      <path id="Path_261" data-name="Path 261" d="M392.62,181.11l1.92,1-1.09,1.8-2-1.18.06,2.16h-2.14l.05-2.16-2,1.18-1.07-1.8,1.91-1-1.91-1.05,1.07-1.81,2,1.21-.05-2.19h2.14l-.06,2.19,2-1.21,1.09,1.81Z" fill="#e0e0e0"/>
      <path id="Path_262" data-name="Path 262" d="M401.52,181.11l1.92,1-1.09,1.8-2-1.18.06,2.16h-2.14v-2.16l-2,1.18-1.07-1.8,1.91-1-1.91-1.05,1.07-1.81,2,1.21v-2.19h2.14l-.06,2.19,2-1.21,1.09,1.81Z" fill="#e0e0e0"/>
      <path id="Path_263" data-name="Path 263" d="M410.42,181.11l1.92,1-1.09,1.8-2-1.18.05,2.16h-2.14l.05-2.16-2,1.18-1.07-1.8,1.91-1-1.91-1.05,1.07-1.81,2,1.21-.05-2.19h2.14l-.05,2.19,2-1.21,1.09,1.81Z" fill="#e0e0e0"/>
      <path id="Path_264" data-name="Path 264" d="M419.32,181.11l1.92,1-1.09,1.8-2-1.18.05,2.16h-2.14l.05-2.16-2,1.18-1.07-1.8,1.92-1-1.92-1.05,1.07-1.81,2,1.21-.05-2.19h2.14l-.05,2.19,2-1.21,1.09,1.81Z" fill="#e0e0e0"/>
      <path id="Path_265" data-name="Path 265" d="M428.22,181.11l1.92,1-1.09,1.8-2-1.18.05,2.16H425l.05-2.16-2,1.18-1.07-1.8,1.92-1-1.9-1.05,1.07-1.81,2,1.21-.05-2.19h2.14l-.05,2.19,2-1.21,1.09,1.81Z" fill="#e0e0e0"/>
      <path id="Path_266" data-name="Path 266" d="M437.12,181.11l1.92,1L438,184l-2-1.18v2.16h-2.14l.05-2.16L432,184l-1.07-1.8,1.92-1-1.92-1.05,1.07-1.81,2,1.21-.05-2.19H436v2.19l2-1.21,1.09,1.81Z" fill="#e0e0e0"/>
    </g>
    <g id="freepik--Plant--inject-15">
      <path id="Path_267" data-name="Path 267" d="M52.1,219.63c11.8,6.11,20.84,16.63,27.34,28.21s10.7,24.29,14.85,36.91l3.63,65.07C84.2,326.48,73.18,299,70.21,272.11l9.13-.81c-6.12-.94-11.26-5.37-14.53-10.63s-5-11.33-6.6-17.3L69.35,245A41.29,41.29,0,0,1,52.1,219.63Z" fill="#455a64"/>
      <g id="Group_60" data-name="Group 60" opacity="0.3">
        <path id="Path_268" data-name="Path 268" d="M52.1,219.63c11.8,6.11,20.84,16.63,27.34,28.21s10.7,24.29,14.85,36.91l3.63,65.07C84.2,326.48,73.18,299,70.21,272.11l9.13-.81c-6.12-.94-11.26-5.37-14.53-10.63s-5-11.33-6.6-17.3L69.35,245A41.29,41.29,0,0,1,52.1,219.63Z"/>
      </g>
      <path id="Path_269" data-name="Path 269" d="M100,365.07s29.79-35.65,29.45-69.69h-12s13.07-8.6,12-13.41-1.38-23-1.38-23l-11,2.75s8.25-4.13,9.28-10.66-2.4-36.79-2.4-36.79-13.41,14.1-17.54,28.54-15,31.28-11.77,75.29S100,365.07,100,365.07Z" fill="#455a64"/>
      <path id="Path_270" data-name="Path 270" d="M84.85,368.44s-32.27-21.5-39.44-48.94l9.67-2.64s-12.38-4.05-12.61-8.14-3.93-18.82-3.93-18.82l9.45-.2s-7.54-1.51-9.8-6.54-6.11-30.1-6.11-30.1,13.86,8.4,20.34,19.11,18.87,21.88,25.94,57.95S84.85,368.44,84.85,368.44Z" fill="#455a64"/>
      <path id="Path_271" data-name="Path 271" d="M115.76,245.33a2.18,2.18,0,0,1-.05.38l-.21,1.11c-.2,1-.48,2.43-.85,4.25s-.83,4.1-1.32,6.73-1.09,5.61-1.67,8.92c-1.23,6.62-2.54,14.52-3.89,23.32s-2.64,18.48-3.84,28.68-2.08,19.94-2.81,28.81-1.22,16.87-1.53,23.59c-.19,3.36-.3,6.4-.41,9.07s-.19,5-.24,6.85-.12,3.31-.15,4.33a7.14,7.14,0,0,1-.05,1.13,2.28,2.28,0,0,1,0,.38,2.209,2.209,0,0,1,0-.38c0-.28,0-.65,0-1.13v-4.33c0-1.86.07-4.19.16-6.86s.16-5.72.33-9.08c.27-6.73.76-14.73,1.42-23.61s1.61-18.62,2.78-28.83,2.53-19.9,3.87-28.7,2.73-16.69,4-23.3c.6-3.32,1.22-6.3,1.75-8.92s1-4.87,1.41-6.71.72-3.24.94-4.23l.26-1.1a2.181,2.181,0,0,1,.1-.37Z" fill="#263238"/>
      <path id="Path_272" data-name="Path 272" d="M104.09,386.9s27.26-30.93,35.72-49.62l-6.39-2.73c4.63.76,9.38-1.23,13-4.25s6.23-7,8.81-10.92L146.79,318a31.32,31.32,0,0,0,18.39-14.25c-9.94,1.64-18.92,7.09-26.33,13.91A131.548,131.548,0,0,0,122.9,336.1a62.651,62.651,0,0,0-6.19,10.19C112.13,355.76,104.07,375.55,104.09,386.9Z" fill="#455a64"/>
      <path id="Path_273" data-name="Path 273" d="M45,271.06a2,2,0,0,1,.18.29c.11.23.27.51.46.88.42.8,1,1.94,1.75,3.39,1.52,2.94,3.65,7.23,6.2,12.58s5.49,11.75,8.62,18.92,6.41,15.14,9.68,23.56,6.15,16.54,8.69,23.95,4.65,14.13,6.35,19.8,3,10.28,3.88,13.48l1,3.68.25,1a1.42,1.42,0,0,1,.06.33,1,1,0,0,1-.11-.32c-.08-.23-.18-.55-.3-.94-.25-.87-.61-2.1-1.07-3.66-.92-3.18-2.29-7.77-4-13.42s-3.93-12.35-6.46-19.76-5.47-15.48-8.72-23.91-6.55-16.37-9.63-23.56-6-13.6-8.52-19-4.57-9.67-6-12.64l-1.66-3.43c-.18-.38-.32-.67-.42-.9a1.761,1.761,0,0,1-.23-.32Z" fill="#263238"/>
      <path id="Path_274" data-name="Path 274" d="M101.77,400.16a2.82,2.82,0,0,1,0-.58c0-.44.1-1,.16-1.66s.18-1.6.34-2.61.31-2.18.56-3.45c.44-2.55,1.11-5.56,2-8.87s2-6.89,3.4-10.59,2.94-7.14,4.45-10.21,3-5.76,4.38-8c.65-1.12,1.3-2.09,1.86-3a21.936,21.936,0,0,1,1.47-2.18c.47-.59.71-1,1-1.35a2.419,2.419,0,0,1,.37-.46,3.133,3.133,0,0,1-.28.52l-.89,1.4c-.4.61-.87,1.35-1.4,2.23s-1.16,1.86-1.79,3c-1.3,2.22-2.76,4.93-4.26,8s-3,6.5-4.39,10.18-2.51,7.26-3.43,10.54-1.59,6.28-2.08,8.81c-.27,1.26-.45,2.41-.63,3.42s-.32,1.88-.43,2.6-.19,1.21-.26,1.64a2.64,2.64,0,0,1-.15.62Z" fill="#263238"/>
      <rect id="Rectangle_47" data-name="Rectangle 47" width="59.66" height="12.17" transform="translate(65.8 392.88)" fill="#b74c3a"/>
      <path id="Path_275" data-name="Path 275" d="M119.78,405.05l-6.45,40.94H77.28l-6.02-40.94Z" fill="#b74c3a"/>
      <path id="Path_276" data-name="Path 276" d="M69.46,405.05c0-.14,11.29-.26,25.21-.26s25.21.12,25.21.26-11.29.26-25.21.26S69.46,405.2,69.46,405.05Z" fill="#263238"/>
    </g>
    <g id="freepik--Character--inject-15">
      <path id="Path_277" data-name="Path 277" d="M367.18,400.4s71.71-37.36,87.26-16.75-15.61,36.8-21.63,40.44-66.93,24.33-66.93,24.33l-16.07-17.15Z" fill="#263238"/>
      <path id="Path_278" data-name="Path 278" d="M395.46,420.39l28.59,15.39,26.13,5.66a3.34,3.34,0,0,1,2.49,4.18h0a3.28,3.28,0,0,1-2.09,2.21c-6.49,2.26-30.38,10.45-32.41,9.21-2.35-1.44-31.24-14.24-31.24-14.24Z" fill="#b74c3a"/>
      <g id="Group_61" data-name="Group 61" opacity="0.6">
        <path id="Path_279" data-name="Path 279" d="M452.67,445.62,416.22,456l1.22.63a5,5,0,0,0,3.44.41c3.09-.73,11.59-3,29.65-9.16a3.32,3.32,0,0,0,2.14-2.3Z" fill="#fff"/>
      </g>
      <g id="Group_62" data-name="Group 62" opacity="0.6">
        <path id="Path_280" data-name="Path 280" d="M409.91,445.35a2,2,0,0,1,2.59.7,1.94,1.94,0,0,1-.67,2.58,2.13,2.13,0,0,1-2.74-.76,2,2,0,0,1,1-2.6" fill="#fff"/>
      </g>
      <path id="Path_281" data-name="Path 281" d="M436.66,445.79c.16-.12-1-1.55-1-3.68s1.22-3.53,1.06-3.66-.47.19-.91.82a5.22,5.22,0,0,0-.86,2.83,5.161,5.161,0,0,0,.78,2.85C436.19,445.59,436.6,445.85,436.66,445.79Z" fill="#263238"/>
      <path id="Path_282" data-name="Path 282" d="M441.58,445.7c.2-.07-.27-1.48.06-3.19s1.24-2.87,1.08-3-1.43.92-1.78,2.88S441.43,445.82,441.58,445.7Z" fill="#263238"/>
      <path id="Path_283" data-name="Path 283" d="M429.74,447.1c.2-.07-.53-2.23-.24-4.94s1.38-4.7,1.19-4.8-1.63,1.82-1.9,4.73S429.59,447.2,429.74,447.1Z" fill="#263238"/>
      <path id="Path_284" data-name="Path 284" d="M420.66,443.14c.21,0,.35-1.92,1.34-4s2.32-3.51,2.18-3.67-1.8,1.08-2.83,3.37S420.47,443.17,420.66,443.14Z" fill="#263238"/>
      <path id="Path_285" data-name="Path 285" d="M412.15,438.84c.21,0,.07-2.11,1.29-4.25s3-3.17,2.91-3.35-.56.06-1.28.53a7.06,7.06,0,0,0-2.26,2.47,7.18,7.18,0,0,0-.9,3.23C411.9,438.33,412.06,438.85,412.15,438.84Z" fill="#263238"/>
      <path id="Path_286" data-name="Path 286" d="M411.79,433.82a3.86,3.86,0,0,0-1.07-.6,8.52,8.52,0,0,0-3.31-.59,3.81,3.81,0,0,0-2.35.62,1.37,1.37,0,0,0-.42,1.48,2.21,2.21,0,0,0,1.08,1.13,4.7,4.7,0,0,0,5.74-1.7,5.44,5.44,0,0,0-.11-6.07,1.88,1.88,0,0,0-1.36-.8,1.32,1.32,0,0,0-1.24.91,4.641,4.641,0,0,0,0,2.41,9.419,9.419,0,0,0,1.24,3.12,4.1,4.1,0,0,0,.78,1,15,15,0,0,1-1.52-4.17,4.27,4.27,0,0,1,0-2.1.69.69,0,0,1,.67-.5,1.28,1.28,0,0,1,.87.58,4.85,4.85,0,0,1,0,5.26,4.08,4.08,0,0,1-4.85,1.51,1.61,1.61,0,0,1-.79-.75.73.73,0,0,1,.22-.82,3.42,3.42,0,0,1,2-.57,12.57,12.57,0,0,1,4.42.65Z" fill="#263238"/>
      <path id="Path_287" data-name="Path 287" d="M405.71,424.05s-67.57-40.94-76.7-46c-7.85-4.37-32.65-14-41.39,9.75s38.32,58.84,38.32,58.84l39.94,1.79,13.33-5.09L394.35,448Z" fill="#263238"/>
      <path id="Path_288" data-name="Path 288" d="M358.2,449.25,327.91,461l-21.28,16.17a3.33,3.33,0,0,1-4.8-.82h0a3.32,3.32,0,0,1-.32-3c2.5-6.39,11.82-29.87,14.08-30.6,2.62-.85,31.13-14.47,31.13-14.47Z" fill="#b74c3a"/>
      <g id="Group_63" data-name="Group 63" opacity="0.6">
        <path id="Path_289" data-name="Path 289" d="M301.83,476.3l15.79-34.47-1.27.52a5,5,0,0,0-2.55,2.34c-1.45,2.83-5.29,10.74-12.33,28.49a3.34,3.34,0,0,0,.36,3.12Z" fill="#fff"/>
      </g>
      <g id="Group_64" data-name="Group 64" opacity="0.6">
        <path id="Path_290" data-name="Path 290" d="M329.84,444a2,2,0,0,1-2.22,1.51,1.93,1.93,0,0,1-1.52-2.18,2.13,2.13,0,0,1,2.36-1.59,2,2,0,0,1,1.33,2.45" fill="#fff"/>
      </g>
      <path id="Path_291" data-name="Path 291" d="M312.11,464c0,.21,1.84.23,3.42,1.67s1.89,3.22,2.09,3.18.16-.48,0-1.22a5.29,5.29,0,0,0-4.26-3.75C312.57,463.8,312.11,463.94,312.11,464Z" fill="#263238"/>
      <path id="Path_292" data-name="Path 292" d="M309,467.82c-.07.2,1.3.76,2.38,2.13s1.39,2.8,1.59,2.77.23-1.68-1-3.22S309,467.63,309,467.82Z" fill="#263238"/>
      <path id="Path_293" data-name="Path 293" d="M315.62,457.92c-.08.2,2,1.05,3.91,3s2.67,4.1,2.87,4-.32-2.42-2.36-4.52S315.64,457.74,315.62,457.92Z" fill="#263238"/>
      <path id="Path_294" data-name="Path 294" d="M324.53,453.59c-.15.15,1.23,1.52,2.2,3.65s1.16,4.05,1.37,4,.34-2.07-.72-4.34S324.63,453.43,324.53,453.59Z" fill="#263238"/>
      <path id="Path_295" data-name="Path 295" d="M333.33,449.93c-.13.16,1.56,1.41,2.4,3.74s.43,4.35.64,4.39.32-.46.44-1.32a7,7,0,0,0-.42-3.32,7.14,7.14,0,0,0-1.86-2.79C333.88,450.06,333.38,449.85,333.33,449.93Z" fill="#263238"/>
      <path id="Path_296" data-name="Path 296" d="M337.38,452.92a2.7,2.7,0,0,0,1.15-.43,8.451,8.451,0,0,0,2.6-2.13,3.74,3.74,0,0,0,1.05-2.19,1.32,1.32,0,0,0-.85-1.28,2.17,2.17,0,0,0-1.55.09,4.71,4.71,0,0,0-2.45,5.47,5.46,5.46,0,0,0,4.69,3.86,1.89,1.89,0,0,0,1.49-.52,1.32,1.32,0,0,0,.11-1.53,4.53,4.53,0,0,0-1.84-1.55,9.7,9.7,0,0,0-3.18-1.09,3,3,0,0,0-1.23,0,15.31,15.31,0,0,1,4.16,1.55,4.32,4.32,0,0,1,1.57,1.4.68.68,0,0,1-.06.83,1.29,1.29,0,0,1-1,.29,4.88,4.88,0,0,1-4-3.4,4.09,4.09,0,0,1,2-4.67,1.54,1.54,0,0,1,1.08-.11.72.72,0,0,1,.48.7,3.41,3.41,0,0,1-.85,1.87,12.56,12.56,0,0,1-3.37,2.84Z" fill="#263238"/>
      <path id="Path_297" data-name="Path 297" d="M345,456.81c.85-.44,35.06-14.37,35.06-14.37l-34-16.84L325.6,436.21Z" fill="#263238"/>
      <path id="Path_298" data-name="Path 298" d="M302.75,415.64l.47.14,1.35.45,5.17,1.79,19,6.67,62.65,22.11,3,.93-.31.14L405.49,424l.1.31-39.41-24.1-11.34-7-3-1.88-.77-.5c-.17-.11-.26-.17-.25-.18l.27.15.8.46,3.05,1.81,11.42,6.87,39.5,23.94.19.12-.09.2-11.38,23.9-.1.2-.21-.07-3-.93c-1.57-.45-3.07-1-4.58-1.55l-4.5-1.6L373.36,441l-16.61-5.93-28.13-10-18.95-6.83-5.14-1.88-1.33-.5a3.93,3.93,0,0,1-.45-.22Z" fill="#455a64"/>
      <path id="Path_299" data-name="Path 299" d="M345,456.81a14.143,14.143,0,0,1-1.27-1.21l-3.32-3.43c-2.79-2.91-6.62-7-10.83-11.45l-4.23-4.53-.23-.25.3-.15,10.38-5,3-1.42a8,8,0,0,1,1.11-.46,5.62,5.62,0,0,1-1,.61L336,431l-10.3,5.2.07-.4,4.25,4.52c4.21,4.49,8,8.58,10.72,11.56l3.2,3.54a9.53,9.53,0,0,1,1.06,1.39Z" fill="#455a64"/>
      <path id="Path_300" data-name="Path 300" d="M414,390.49c.06.13-8.36,3.79-18.8,8.16s-18.94,7.82-19,7.69,8.36-3.79,18.8-8.17S414,390.35,414,390.49Z" fill="#455a64"/>
      <path id="Path_301" data-name="Path 301" d="M362,287.45c-.71,0-25.38-.23-30.36,4.75s-15.32,81.25-15.32,81.25c5.32,1,8.78,3,12,4.58l41.93,24.45,18.15-9.43a4.56,4.56,0,0,0,1.28-6.93h0l24.15-87.29a44.578,44.578,0,0,0-11.76-6.4C395,289.83,362,287.45,362,287.45Z" fill="#455a64"/>
      <path id="Path_302" data-name="Path 302" d="M405.71,295.55s7.42,1.64,10.26,6.22c6.66,10.73,27.12,48.84,30.56,58,3.64,9.67-.27,15.17-2.9,19.25-2.83,4.39-18.38,4.38-25.43-3.15-3-3.24-19.86-18.51-19.86-18.51Z" fill="#455a64"/>
      <path id="Path_303" data-name="Path 303" d="M414.15,309.7a5.08,5.08,0,0,1-.28.75l-.91,2.12c-.75,1.85-1.8,4.54-3,7.9-2.42,6.73-5.38,16.14-8.52,26.58s-5.87,19.89-7.9,26.79c-1,3.43-1.86,6.2-2.47,8.1l-.72,2.19a4.26,4.26,0,0,1-.28.75,5.124,5.124,0,0,1,.18-.78q.24-.83.63-2.22c.56-2,1.34-4.74,2.31-8.14,1.94-6.88,4.62-16.38,7.75-26.84s6.16-19.85,8.67-26.55c1.25-3.36,2.36-6,3.17-7.86l1-2.08A4,4,0,0,1,414.15,309.7Z" fill="#263238"/>
      <path id="Path_304" data-name="Path 304" d="M332.82,291.33s-7.79,4.43-10.64,7S289.89,342.91,286.12,356c-2.19,7.58,6.16,23.26,15.16,22.5,11.77-1,55.93-17.93,55.93-17.93L347.3,339l-25,4,18.15-18.24-6.77-33.92" fill="#455a64"/>
      <path id="Path_305" data-name="Path 305" d="M437.56,355.27a2.331,2.331,0,0,1-.44-.27l-1.22-.84L431.47,351c-3.72-2.7-8.84-6.47-14.48-10.66l-3.77-2.81.35-.05c-3.59,4.69-6.79,8.78-9.12,11.67a34.6,34.6,0,0,1-3.89,4.49l3.63-4.7,9-11.77.15-.2.2.15,3.78,2.8c5.64,4.19,10.72,8,14.39,10.79L436,354l1.16.92A2.37,2.37,0,0,1,437.56,355.27Z" fill="#263238"/>
      <path id="Path_306" data-name="Path 306" d="M367.67,331.37l-19.8,8.87,7.9,17.17,12.38-8.17Z" fill="#b2655f"/>
      <path id="Path_307" data-name="Path 307" d="M386.38,333.05l13.25-9a2.44,2.44,0,0,1,1.59-.42l17.32,1.48a1.33,1.33,0,0,1,1.22,1.36,2.36,2.36,0,0,1-.73,1.84L390.9,347.88l-21-3.33Z" fill="#e0e0e0"/>
      <path id="Path_308" data-name="Path 308" d="M367.67,331.37s7.15-5.3,8.83-5.59,9.23-.26,9.23-.26l6.36,3.63-3.94,2.67c-2.73-.6-3.51-1.66-3.51-1.66l-4.4.29Z" fill="#b2655f"/>
      <path id="Path_309" data-name="Path 309" d="M375.71,329.07,387,333l16.24,2.29a3.55,3.55,0,0,1-3.24,3.65c-2,.21-5.38.44-5.38.44s-.83,3-3.36,3.65a8.29,8.29,0,0,1-2.44,2.89,2,2,0,0,1-.5.22c-1.56.45-4.67,4.68-6.75,5.25s-13.44-2.11-13.44-2.11l-.48-17.86Z" fill="#b2655f"/>
      <path id="Path_310" data-name="Path 310" d="M379,338.29c0-.05.9.19,2.33.48a43.169,43.169,0,0,0,5.69.74,41.355,41.355,0,0,0,5.72,0c1.47-.1,2.37-.23,2.38-.18a3,3,0,0,1-.63.15c-.4.08-1,.17-1.73.25a33.884,33.884,0,0,1-5.76.1,33.5,33.5,0,0,1-5.71-.84c-.72-.17-1.3-.33-1.69-.46a2.911,2.911,0,0,1-.6-.24Z" fill="#8e4842"/>
      <path id="Path_311" data-name="Path 311" d="M381.22,342.92a2.541,2.541,0,0,1-.11,1.12,2.37,2.37,0,0,1-.61,1.09,2,2,0,0,1-1.47.49,3.84,3.84,0,0,1-1.46-.42c-.41-.21-.75-.43-1.05-.59-.58-.35-1-.48-1-.53a2.33,2.33,0,0,1,1.06.33,6.71,6.71,0,0,0,2.43.9,1.72,1.72,0,0,0,1.26-.39,2.209,2.209,0,0,0,.59-.95A9.557,9.557,0,0,1,381.22,342.92Z" fill="#8e4842"/>
      <path id="Path_312" data-name="Path 312" d="M389.57,344a4.911,4.911,0,0,1-1.24.32,28.08,28.08,0,0,1-3,.37,27.17,27.17,0,0,1-3.07,0,5,5,0,0,1-1.27-.14c0-.1,1.94,0,4.32-.21S389.55,343.94,389.57,344Z" fill="#8e4842"/>
      <path id="Path_313" data-name="Path 313" d="M381,348.72a4,4,0,0,1-3.88.61c0-.1.9.07,2-.1S381,348.64,381,348.72Z" fill="#8e4842"/>
      <path id="Path_314" data-name="Path 314" d="M385.07,348.52a2.887,2.887,0,0,1-1.21.32,2.73,2.73,0,0,1-1.26,0,2.69,2.69,0,0,1,1.22-.32C384.5,348.44,385.06,348.43,385.07,348.52Z" fill="#8e4842"/>
      <path id="Path_315" data-name="Path 315" d="M387,333a30.688,30.688,0,0,1-5.29-1.77c-1.44-.56-2.73-1.09-3.65-1.51a6.51,6.51,0,0,1-1.45-.76,11.746,11.746,0,0,1,1.53.56l3.68,1.42,3.67,1.43A5.161,5.161,0,0,1,387,333Z" fill="#8e4842"/>
      <path id="Path_316" data-name="Path 316" d="M403.59,337s-1.25-.43.1-2.4,5.13.42,5.13.42l4.83,2.87s1.08,2.51-.26,3.18l-1,1.22s1.89,1.91,1.13,3.58a2.6,2.6,0,0,1-2.63,1.44s.22,3.38-.88,4.68a3.69,3.69,0,0,1-2.1,1.42,6,6,0,0,1-4.17,3.63c-3.24.83-4.94.89-5.82-.48a14.92,14.92,0,0,1-1.43-3.09s-6.95-3.65-7.1-5.5.17-2,.17-2a3.47,3.47,0,0,1,.14-2.67c.7-1.13,3.46-.14,3.46-.14l8.87,2.08s-7.1-3.33-7.94-4.42.06-2.43,2.91-2.09,11.46,1.95,11.46,1.95a2.64,2.64,0,0,0-1-1.1c-.57-.24-2.35-1.27-2.35-1.27Z" fill="#b2655f"/>
      <path id="Path_317" data-name="Path 317" d="M405.71,350.47c0,.08-3.62-.84-8-2.05s-8-2.27-7.95-2.35,3.62.84,8,2.05S405.73,350.39,405.71,350.47Z" fill="#8e4842"/>
      <path id="Path_318" data-name="Path 318" d="M401.48,355.3a10.22,10.22,0,0,1-2.59-.66,18.2,18.2,0,0,1-1.77-.68,3.311,3.311,0,0,1-.52-.28.678.678,0,0,1-.12-.11s0-.09,0-.07,1.1.38,2.49.84A13.75,13.75,0,0,1,401.48,355.3Z" fill="#8e4842"/>
      <path id="Path_319" data-name="Path 319" d="M409.08,346.57c0,.08-1.75-.27-3.89-.62a39.151,39.151,0,0,1-3.88-.67,18.25,18.25,0,0,1,3.93.37A17.609,17.609,0,0,1,409.08,346.57Z" fill="#8e4842"/>
      <path id="Path_320" data-name="Path 320" d="M411.25,342c-.06.08-.76-.42-1.74-.77s-1.83-.44-1.83-.53a3.28,3.28,0,0,1,1.94.24A3.33,3.33,0,0,1,411.25,342Z" fill="#8e4842"/>
      <path id="Path_321" data-name="Path 321" d="M419,326.72h-.32l-.93-.11c-.8-.11-2-.26-3.39-.42-2.87-.33-6.85-.68-11.26-.78a6.24,6.24,0,0,0-3.08.36,12.994,12.994,0,0,0-1.26.83l-1.2.85-4.15,2.93-2.81,1.95-.78.52c-.17.12-.27.17-.28.16a2.759,2.759,0,0,1,.25-.21l.74-.56,2.76-2,4.11-3,1.19-.86a14.445,14.445,0,0,1,1.29-.86,3.63,3.63,0,0,1,1.59-.4h1.64a108.358,108.358,0,0,1,11.27.87c1.44.19,2.6.38,3.39.52l.92.17a1,1,0,0,1,.31.04Z" fill="#263238"/>
      <path id="Path_322" data-name="Path 322" d="M408.15,328.26a.84.84,0,0,0-.83-.32h-.14a1.18,1.18,0,0,0-.68.38.72.72,0,0,0,0,.91.83.83,0,0,0,.49.23,1.22,1.22,0,0,0,1-.25A.84.84,0,0,0,408.15,328.26Z" fill="#fff"/>
      <path id="Path_323" data-name="Path 323" d="M368.78,232.1l-1.92-1a4.08,4.08,0,0,0-2.93-.68c-.95.27-1.61,1.18-2.59,1.28-1.14.13-2.08-.9-3.22-.84s-1.93,1-3,1c-.8,0-1.65-.57-2.34-.18-.14.08-.26.19-.39.28a2.84,2.84,0,0,1-2.66-.15,3.67,3.67,0,0,0-2.66-.46,4.23,4.23,0,0,0-1.38,1.11,1.91,1.91,0,0,1-1.61.66c-.33-.07-.6-.28-.93-.36-1-.26-1.89.84-2.94,1.12s-2.1-.22-3,.22a1.53,1.53,0,0,0-.74,1.88,2.32,2.32,0,0,0,1.74,1.31,4.82,4.82,0,0,0,2.35-.17,5.7,5.7,0,0,1,1.89-.43c1.49.05,2.66,1.59,4.12,1.27a5.139,5.139,0,0,0,1.8-1.14,5,5,0,0,1,2.9-.94,5.6,5.6,0,0,0,2.05-.11c.79-.32,1.24-1.15,2.06-1.37s1.76.31,2.67.22c.59-.05,1.14-.38,1.74-.41.85-.05,1.62.5,2.47.43s1.6-.79,2.47-.72a5.861,5.861,0,0,1,1,.27,1.08,1.08,0,0,0,1-.15c.19-.18.25-.47.48-.6a1,1,0,0,1,.58-.06l2.82.29Z" fill="#263238"/>
      <path id="Path_324" data-name="Path 324" d="M371.81,232c-.95-.7-2.22-1.43-3.29-.84-.39.21-.68.56-1.07.75-.9.42-2-.13-2.94.13-.81.23-1.35,1-2.1,1.35-1.21.6-3,.25-3.74,1.31-.41.58-.48,1.51-1.19,1.67a1.77,1.77,0,0,1-.76-.09,6.34,6.34,0,0,0-2.64-.08,2.81,2.81,0,0,0-1.37.58c-.72.65-.74,1.76-1.43,2.44-1,1-2.87.53-4.19,1.18a8.2,8.2,0,0,0-1.61,1.33,18.261,18.261,0,0,1-3.4,2.07,7.38,7.38,0,0,0-3,2.53,2.68,2.68,0,0,0,.38,3.43,1.36,1.36,0,0,0,1.69.08c.15-.14.25-.34.39-.5a3.31,3.31,0,0,1,1.17-.59c.41-.16.84-.47.84-.89,0-.26-.15-.57.06-.75a.63.63,0,0,1,.31-.1c1.06-.11,2.36-.06,2.93-.92a6.127,6.127,0,0,0,.43-1.27A2.38,2.38,0,0,1,349,243.4c.65-.15,1.38-.05,1.9-.45s.61-1.31,1.14-1.81c.89-.84,2.65-.23,3.45-1.14.2-.23.31-.52.56-.69.72-.47,1.59.5,2.44.34s1-1,1.51-1.48a8.73,8.73,0,0,1,2.47-1.14c1.05-.51,1.81-1.5,2.92-1.83,1-.29,2.14-.09,2.85-.77.27-.26.46-.63.83-.75a1.63,1.63,0,0,1,.66,0,5,5,0,0,0,3.17-.64Z" fill="#263238"/>
      <path id="Path_325" data-name="Path 325" d="M370.19,234.54a8,8,0,0,0-6.78,2,5.35,5.35,0,0,1-1.28,1,7.18,7.18,0,0,1-2.5.28,4.92,4.92,0,0,0-4.13,3.34c-.38,1.15-.52,2.66-1.63,3.06a3.418,3.418,0,0,0-.61.22c-.74.46-.23,1.64-.24,2.55,0,1.5-1.68,2.53-1.74,4a3.88,3.88,0,0,0,.39,1.59q.87,2.15,1.91,4.2c.31.61.72,1.29,1.38,1.38,1,.13,1.54-1,1.82-2a2.91,2.91,0,0,0,.06-2.09c-.28-.53-.85-.84-1.1-1.39-.39-.87.24-1.84.69-2.67a8,8,0,0,0,.77-5.51c1-.19,1.53-1.61,2.57-1.81a6.273,6.273,0,0,0,.87-.11c.69-.28.77-1.33,1.38-1.76s2-.1,2.34-.95c.1-.27.05-.59.22-.81a.85.85,0,0,1,.55-.29l2.52-.63a2.91,2.91,0,0,0,1.34-.59c.65-.62.75-1.8,1.57-2.12Z" fill="#263238"/>
      <path id="Path_326" data-name="Path 326" d="M372.86,229.53c-.1-1.48-.38-3.26-1.69-3.86-.77-.36-1.71-.17-2.47-.56-1.46-.73-1.58-3.09-3-3.84s-3.32.41-4.46-.69c-.59-.57-.67-1.52-1.15-2.19a3.34,3.34,0,0,0-2.57-1.1,8.09,8.09,0,0,1-2.82-.38c-1.5-.66-2.46-2.52-4.07-2.65-1.37-.1-2.44,1.1-3.3,2.2a2.11,2.11,0,0,0-.49.92,1.61,1.61,0,0,0,.89,1.51c1.09.64,2.49.54,3.5,1.29a10,10,0,0,0,1.09.88c.58.31,1.31.24,1.87.59,1.09.67,1.07,2.5,2.16,3.18s2.36-.12,3.54.15c1.6.38,2.48,2.61,4.12,2.67a15.772,15.772,0,0,0,2.12-.47,2.35,2.35,0,0,1,2.27,1.34c.26.56.3,1.22.61,1.76a2.55,2.55,0,0,0,1.89,1.19,7.171,7.171,0,0,0,2.26-.13Z" fill="#263238"/>
      <path id="Path_327" data-name="Path 327" d="M371.62,234.14c-1-1.89-2.23-3.91-4.28-4.79a26.563,26.563,0,0,1-3.18-1.11c-.82-.48-1.4-1.25-2.17-1.8-1.79-1.27-4.26-1.19-6.46-.84s-4.47.9-6.63.37c-1.94-.48-3.63-1.79-5.62-1.91a9.68,9.68,0,0,0-3.19.55l-3.62,1a1.68,1.68,0,0,0-1,.6c-.39.65.37,1.4,1.09,1.7a6.64,6.64,0,0,0,3.74.4,9.18,9.18,0,0,1,3-.45,19.673,19.673,0,0,1,2,.64,7.5,7.5,0,0,0,2.59,0l4-.42a5.61,5.61,0,0,1,3.05.26c.72.35,1.29,1,2.09,1.1s1.74-.56,2.63-.43c1.06.17,1.59,1.35,2.56,1.8,1.14.53,2.64-.09,3.74.52.75.41,1.07,1.25,1.55,1.94a4.84,4.84,0,0,0,1.53,1.42,10.4,10.4,0,0,0,2.57.94Z" fill="#263238"/>
      <path id="Path_328" data-name="Path 328" d="M373.74,225.74c-.48-.66-1.21-1.33-1-2.13.1-.39.42-.71.49-1.11.12-.72-.61-1.28-.88-2s0-1.8-.46-2.54-1.52-.89-2.4-1.11a3,3,0,0,1-2.24-1.75,10.3,10.3,0,0,1-.12-2,3.78,3.78,0,0,0-3.63-3.1,3.94,3.94,0,0,1-1.5-.17c-.85-.4-1-1.49-1.53-2.3A3.18,3.18,0,0,0,357.2,206c-.6.12-1.26.75-.91,1.25.14.2.4.28.59.44.68.58.19,1.75.59,2.54s1.68,1,2.07,1.84c.3.65-.05,1.46.23,2.12.35.81,1.4,1,2.28,1s1.93.24,2.26,1a4.83,4.83,0,0,1,.17,1.14,2.23,2.23,0,0,0,1.15,1.59c.85.43,2,.35,2.55,1.16s-.25,2.2.26,3.15c.37.69,1.26.87,1.93,1.29a.76.76,0,0,1,.35.4.85.85,0,0,1-.12.53c-.53,1.08-1.2,2.32-.69,3.4a4.469,4.469,0,0,0,.92,1.12,9.47,9.47,0,0,1,2.32,4l.93-4.07A4.17,4.17,0,0,0,373.74,225.74Z" fill="#263238"/>
      <path id="Path_329" data-name="Path 329" d="M378.9,212a2.73,2.73,0,0,0-1.18-3.15,2.15,2.15,0,0,0-3,1.13c-.4,1.33.72,2.89,0,4.09a4.249,4.249,0,0,0-.61.95c-.25.88.85,1.62.86,2.54s-1.27,1.57-1.53,2.55.83,2.31.42,3.4a4,4,0,0,1-.53.82c-1.17,1.72-.57,4,.07,6l2.65-.39c-.49-1.84,2.1-3.68,1.22-5.36-.42-.8-1.57-1.38-1.31-2.25a1.71,1.71,0,0,1,.4-.6l2.47-2.7a2.49,2.49,0,0,0,.79-1.37c.11-1.17-1.35-1.93-1.54-3.1C378,213.64,378.63,212.83,378.9,212Z" fill="#263238"/>
      <path id="Path_330" data-name="Path 330" d="M379.81,227c-.25-.87-1.38-1.13-2.27-1-2.46.38-4.26,2.44-5.83,4.36a52,52,0,0,0-4.86,6.61,4.379,4.379,0,0,0-.68,1.68,1.7,1.7,0,0,0,.62,1.62,1.07,1.07,0,0,0,1.55-.36l.73-.18a35.66,35.66,0,0,1,9.34-10.42C379.18,228.71,380.07,227.9,379.81,227Z" fill="#b74c3a"/>
      <path id="Path_331" data-name="Path 331" d="M366.28,264.62a85.683,85.683,0,0,1-.91-14.66,29.77,29.77,0,0,1,3.92-14c.39-.64,3.45-4.8,4.16-4.59.51.15-1.66,4.17-1.48,4.67,1.66,4.79,1.33,10.1,0,15a66.092,66.092,0,0,1-5.66,13.61" fill="#263238"/>
      <path id="Path_332" data-name="Path 332" d="M388.07,296.56c.7-3.39,1.26-6.06,1.29-6.06s11.89,1.1,14.91-10.31c1.46-5.51,3.53-17.1,5.29-27.61a22,22,0,0,0-16.32-25l-1.11-.28c-12.08-2.29-20.78,6.68-22.74,18.82l-8.21,42.24L380,308.14Z" fill="#b2655f"/>
      <path id="Path_333" data-name="Path 333" d="M389.36,290.5a28.49,28.49,0,0,1-13.79-8.15s1.54,9.24,13.21,11.08Z" fill="#8e4842"/>
      <path id="Path_334" data-name="Path 334" d="M403.72,261.66a1.68,1.68,0,0,1-2,1.25,1.61,1.61,0,0,1-1.31-1.9,1.69,1.69,0,0,1,2-1.25,1.6,1.6,0,0,1,1.31,1.9Z" fill="#263238"/>
      <path id="Path_335" data-name="Path 335" d="M405.92,256.71c-.25.16-1.26-1.06-3-1.5s-3.27.12-3.41-.15c-.06-.12.24-.45.9-.72a4.72,4.72,0,0,1,2.8-.14,4.44,4.44,0,0,1,2.34,1.46C406,256.21,406.05,256.64,405.92,256.71Z" fill="#263238"/>
      <path id="Path_336" data-name="Path 336" d="M387.77,258.59a1.69,1.69,0,0,1-2,1.26,1.61,1.61,0,0,1-1.31-1.9,1.68,1.68,0,0,1,2-1.25,1.6,1.6,0,0,1,1.31,1.89Z" fill="#263238"/>
      <path id="Path_337" data-name="Path 337" d="M388.52,253.09c-.26.16-1.27-1.06-3-1.5s-3.27.12-3.41-.15c-.07-.11.23-.45.9-.71a4.6,4.6,0,0,1,2.79-.15,4.36,4.36,0,0,1,2.34,1.46C388.56,252.59,388.64,253,388.52,253.09Z" fill="#263238"/>
      <path id="Path_338" data-name="Path 338" d="M391.43,268.19a12,12,0,0,1,3,.2c.46.07.91.09,1.06-.2a2.33,2.33,0,0,0,0-1.41c-.15-1.19-.3-2.44-.47-3.75-.62-5.33-.94-9.67-.73-9.69s.89,4.28,1.51,9.61c.15,1.31.28,2.56.41,3.76a2.68,2.68,0,0,1-.21,1.82,1.19,1.19,0,0,1-.9.47,2.64,2.64,0,0,1-.79-.09,11.881,11.881,0,0,1-2.88-.72Z" fill="#263238"/>
      <path id="Path_339" data-name="Path 339" d="M386,268.11c.29.05-.19,2,1.11,3.73s3.38,2.06,3.32,2.33-.54.26-1.41.07a4.94,4.94,0,0,1-2.8-1.85,4.25,4.25,0,0,1-.81-3.09C385.49,268.48,385.82,268.06,386,268.11Z" fill="#263238"/>
      <path id="Path_340" data-name="Path 340" d="M390.22,245.93c-.3.44-2-.23-4.12-.5s-3.94-.13-4.1-.63c-.07-.23.33-.61,1.12-.9a7.14,7.14,0,0,1,6.26.86C390.06,245.25,390.35,245.72,390.22,245.93Z" fill="#263238"/>
      <path id="Path_341" data-name="Path 341" d="M406.67,250.68c-.41.32-1.52-.39-3-.78s-2.76-.41-2.94-.9c-.07-.23.22-.58.86-.83a4.47,4.47,0,0,1,4.76,1.36C406.79,250.07,406.85,250.52,406.67,250.68Z" fill="#263238"/>
      <path id="Path_342" data-name="Path 342" d="M368.2,254.88c-.18-.13-7.28-4.3-9,3.58s6.56,8,6.62,7.76S368.2,254.88,368.2,254.88Z" fill="#b2655f"/>
      <path id="Path_343" data-name="Path 343" d="M364.06,262.71a2.2,2.2,0,0,1-.41.12,1.38,1.38,0,0,1-1-.2c-.77-.49-1.18-2-.91-3.39a4.521,4.521,0,0,1,.81-1.88,1.61,1.61,0,0,1,1.26-.83.71.71,0,0,1,.73.55.8.8,0,0,1,0,.41c0,.02.2-.09.21-.43a.9.9,0,0,0-.2-.56,1.05,1.05,0,0,0-.72-.37,2,2,0,0,0-1.7.91,4.86,4.86,0,0,0-1,2.09c-.29,1.6.2,3.27,1.27,3.85a1.53,1.53,0,0,0,1.3.06C364,262.9,364.08,262.73,364.06,262.71Z" fill="#8e4842"/>
      <path id="Path_344" data-name="Path 344" d="M407.18,238.42c1.43-.44-1.55-5.38-4.39-7.46-4.3-3.14-11.28-6-15.92-5.65-5.58.39-10.51,2.1-14.15,6.35a31.75,31.75,0,0,0-6.8,15.14,9.64,9.64,0,0,0,.11,5.06c.74,2,2.63,3.52,2,5.91a3.36,3.36,0,0,0,.32,2.58c1.12,1.84,3.19.76,4.31-.52,2.38-2.73,3.34-6.38,4.23-9.9a23.28,23.28,0,0,0,1.07-7.61c-.11-1.4-.47-2.78-.51-4.18a4.88,4.88,0,0,1,1.39-3.83,6,6,0,0,1,.77-.51,8.4,8.4,0,0,1,8.5.15c4.12,2.5,11.23,6.43,13.53,5.34,3.31-1.58,4.29-2.85,4.29-2.85Z" fill="#263238"/>
      <path id="Path_345" data-name="Path 345" d="M323.11,372.94a3.16,3.16,0,0,1,.64-.28l1.87-.73,7.06-2.64,24.44-9-.14.34c-2-4.41-4.24-9.21-6.54-14.18l-3.37-7.35.27.14L322.86,343h0a49.531,49.531,0,0,0-12.65,5.56c-1.4.86-2.45,1.6-3.17,2.1l-.8.58a1,1,0,0,1-.29.18l.25-.23.77-.62c.69-.54,1.73-1.31,3.12-2.2a47.881,47.881,0,0,1,12.66-5.75h0l24.47-3.82h.19l.09.17c1.09,2.39,2.23,4.85,3.38,7.35,2.28,5,4.49,9.77,6.51,14.19l.12.24-.26.1-24.51,8.8-7.1,2.51-1.9.65Z" fill="#263238"/>
      <path id="Path_346" data-name="Path 346" d="M337.76,328a17.126,17.126,0,0,1-2,2.46c-1.3,1.47-3.12,3.47-5.19,5.64s-4,4.08-5.45,5.39a16.223,16.223,0,0,1-1.82,1.47c-.25.14-.42.28-.64.24a.15.15,0,0,1,0-.2s0-.05,0-.05,0,.13.06.15a1.41,1.41,0,0,0,.48-.3c.41-.34,1-.89,1.68-1.57,1.39-1.38,3.27-3.33,5.33-5.49l5.3-5.53a19.4,19.4,0,0,1,2.25-2.21Z" fill="#263238"/>
      <path id="Path_347" data-name="Path 347" d="M342.52,318.12c-.11,0,.21-1.57.21-4.1a26.321,26.321,0,0,0-.38-4.4,27.26,27.26,0,0,0-3.86-10.05,27.607,27.607,0,0,0-2.68-3.53c-1.7-1.87-3-2.81-2.9-2.89a4.589,4.589,0,0,1,.92.62,9.877,9.877,0,0,1,1,.83,16.491,16.491,0,0,1,1.25,1.19,24.71,24.71,0,0,1,2.81,3.52,27.728,27.728,0,0,1,2.52,4.9,28.6,28.6,0,0,1,1.42,5.33,24.42,24.42,0,0,1,.27,4.49,16.37,16.37,0,0,1-.13,1.72,9,9,0,0,1-.19,1.29A4.6,4.6,0,0,1,342.52,318.12Z" fill="#263238"/>
      <path id="Path_348" data-name="Path 348" d="M368,392.69a31.372,31.372,0,0,1,3.28,0,29.84,29.84,0,0,0,14.92-4.4c1.72-1,2.7-1.84,2.76-1.77s-.2.25-.63.63a20.214,20.214,0,0,1-1.93,1.45,27,27,0,0,1-7.22,3.38,26.689,26.689,0,0,1-7.9,1.08,18.83,18.83,0,0,1-2.41-.17,3.188,3.188,0,0,1-.87-.2Z" fill="#263238"/>
      <path id="Path_349" data-name="Path 349" d="M382.88,370.61a4.333,4.333,0,0,1-.67.85c-.45.53-1.13,1.27-2,2.18-1.71,1.81-4.16,4.24-7,6.77s-5.51,4.71-7.5,6.21c-1,.75-1.81,1.35-2.39,1.74a4,4,0,0,1-.92.57,4.489,4.489,0,0,1,.8-.73l2.28-1.87c1.92-1.57,4.56-3.77,7.39-6.3s5.3-4.91,7.08-6.65l2.1-2.06A4.085,4.085,0,0,1,382.88,370.61Z" fill="#263238"/>
    </g>
  </g>
</svg>
